STARTFONT 2.1
FONT Font
SIZE 16 75 75
FONTBOUNDINGBOX 16 16 0 -2
STARTPROPERTIES 6
PIXEL_SIZE 16
POINT_SIZE 160
SPACING "C"
FONT_ASCENT 14
FONT_DESCENT 2
_GBDFED_INFO "Edited with gbdfed 1.6."
ENDPROPERTIES
CHARS 350
STARTCHAR U+0021
ENCODING 33
SWIDTH 960 0
DWIDTH 16 0
BBX 16 16 0 -2
BITMAP
0C00
0C00
0C00
0C00
0C00
0C00
0C00
0C00
0C00
0C00
0000
0000
0C00
0C00
0000
0000
ENDCHAR
STARTCHAR U+0022
ENCODING 34
SWIDTH 960 0
DWIDTH 16 0
BBX 16 16 0 -2
BITMAP
3300
3300
3300
3300
3300
3300
0000
0000
0000
0000
0000
0000
0000
0000
0000
0000
ENDCHAR
STARTCHAR U+0023
ENCODING 35
SWIDTH 960 0
DWIDTH 16 0
BBX 16 16 0 -2
BITMAP
3300
3300
3300
3300
FFC0
FFC0
3300
3300
FFC0
FFC0
3300
3300
3300
3300
0000
0000
ENDCHAR
STARTCHAR U+0024
ENCODING 36
SWIDTH 960 0
DWIDTH 16 0
BBX 16 16 0 -2
BITMAP
0C00
0C00
7FC0
FFC0
CC00
CC00
FF80
7FC0
0CC0
0CC0
FFC0
FF80
0C00
0C00
0000
0000
ENDCHAR
STARTCHAR U+0025
ENCODING 37
SWIDTH 960 0
DWIDTH 16 0
BBX 16 16 0 -2
BITMAP
C0C0
C0C0
C180
C300
0300
0600
0C00
0C00
1800
3000
30C0
60C0
C0C0
C0C0
0000
0000
ENDCHAR
STARTCHAR U+0026
ENCODING 38
SWIDTH 960 0
DWIDTH 16 0
BBX 16 16 0 -2
BITMAP
3C00
7E00
6600
6600
6600
3C00
7EC0
E7C0
C380
C300
C300
C380
FFC0
7EC0
0000
0000
ENDCHAR
STARTCHAR U+0027
ENCODING 39
SWIDTH 960 0
DWIDTH 16 0
BBX 16 16 0 -2
BITMAP
0C00
0C00
0C00
0C00
0C00
0C00
0000
0000
0000
0000
0000
0000
0000
0000
0000
0000
ENDCHAR
STARTCHAR U+0028
ENCODING 40
SWIDTH 960 0
DWIDTH 16 0
BBX 16 16 0 -2
BITMAP
0700
0F00
1C00
3800
3000
3000
3000
3000
3000
3000
3800
1C00
0F00
0700
0000
0000
ENDCHAR
STARTCHAR U+0029
ENCODING 41
SWIDTH 960 0
DWIDTH 16 0
BBX 16 16 0 -2
BITMAP
3800
3C00
0E00
0700
0300
0300
0300
0300
0300
0300
0700
0E00
3C00
3800
0000
0000
ENDCHAR
STARTCHAR U+002A
ENCODING 42
SWIDTH 960 0
DWIDTH 16 0
BBX 16 16 0 -2
BITMAP
0000
0000
0C00
0C00
CCC0
EDC0
3F00
3F00
EDC0
CCC0
0C00
0C00
0000
0000
0000
0000
ENDCHAR
STARTCHAR U+002B
ENCODING 43
SWIDTH 960 0
DWIDTH 16 0
BBX 16 16 0 -2
BITMAP
0000
0000
0C00
0C00
0C00
0C00
FFC0
FFC0
0C00
0C00
0C00
0C00
0000
0000
0000
0000
ENDCHAR
STARTCHAR U+002C
ENCODING 44
SWIDTH 960 0
DWIDTH 16 0
BBX 16 16 0 -2
BITMAP
0000
0000
0000
0000
0000
0000
0000
0000
0000
0000
0000
3000
3000
3000
3000
2000
ENDCHAR
STARTCHAR U+002D
ENCODING 45
SWIDTH 960 0
DWIDTH 16 0
BBX 16 16 0 -2
BITMAP
0000
0000
0000
0000
0000
0000
FFC0
FFC0
0000
0000
0000
0000
0000
0000
0000
0000
ENDCHAR
STARTCHAR U+002E
ENCODING 46
SWIDTH 960 0
DWIDTH 16 0
BBX 16 16 0 -2
BITMAP
0000
0000
0000
0000
0000
0000
0000
0000
0000
0000
0000
3000
3000
3000
0000
0000
ENDCHAR
STARTCHAR U+002F
ENCODING 47
SWIDTH 960 0
DWIDTH 16 0
BBX 16 16 0 -2
BITMAP
00C0
00C0
0180
0300
0300
0600
0C00
0C00
1800
3000
3000
6000
C000
C000
0000
0000
ENDCHAR
STARTCHAR U+0030
ENCODING 48
SWIDTH 960 0
DWIDTH 16 0
BBX 16 16 0 -2
BITMAP
3F00
7F80
C0C0
C1C0
C3C0
C7C0
CEC0
DCC0
F8C0
F0C0
E0C0
C0C0
7F80
3F00
0000
0000
ENDCHAR
STARTCHAR U+0031
ENCODING 49
SWIDTH 960 0
DWIDTH 16 0
BBX 16 16 0 -2
BITMAP
0C00
1C00
3C00
3C00
0C00
0C00
0C00
0C00
0C00
0C00
0C00
0C00
FFC0
FFC0
0000
0000
ENDCHAR
STARTCHAR U+0032
ENCODING 50
SWIDTH 960 0
DWIDTH 16 0
BBX 16 16 0 -2
BITMAP
3F00
7F80
C0C0
C0C0
00C0
00C0
0780
1F00
3800
7000
E000
C000
FFC0
FFC0
0000
0000
ENDCHAR
STARTCHAR U+0033
ENCODING 51
SWIDTH 960 0
DWIDTH 16 0
BBX 16 16 0 -2
BITMAP
3F00
7F80
C0C0
C0C0
00C0
00C0
0F80
0F80
00C0
00C0
C0C0
C0C0
7F80
3F00
0000
0000
ENDCHAR
STARTCHAR U+0034
ENCODING 52
SWIDTH 960 0
DWIDTH 16 0
BBX 16 16 0 -2
BITMAP
03C0
07C0
0EC0
1CC0
38C0
70C0
E0C0
C0C0
FFC0
FFC0
00C0
00C0
00C0
00C0
0000
0000
ENDCHAR
STARTCHAR U+0035
ENCODING 53
SWIDTH 960 0
DWIDTH 16 0
BBX 16 16 0 -2
BITMAP
FFC0
FFC0
C000
C000
FF00
FF80
00C0
00C0
00C0
00C0
C0C0
C0C0
7F80
3F00
0000
0000
ENDCHAR
STARTCHAR U+0036
ENCODING 54
SWIDTH 960 0
DWIDTH 16 0
BBX 16 16 0 -2
BITMAP
0F00
1F00
3800
7000
E000
C000
FF00
FF80
C0C0
C0C0
C0C0
C0C0
7F80
3F00
0000
0000
ENDCHAR
STARTCHAR U+0037
ENCODING 55
SWIDTH 960 0
DWIDTH 16 0
BBX 16 16 0 -2
BITMAP
FFC0
FFC0
C0C0
C0C0
00C0
01C0
0380
0700
0E00
0C00
0C00
0C00
0C00
0C00
0000
0000
ENDCHAR
STARTCHAR U+0038
ENCODING 56
SWIDTH 960 0
DWIDTH 16 0
BBX 16 16 0 -2
BITMAP
3F00
7F80
C0C0
C0C0
C0C0
C0C0
7F80
7F80
C0C0
C0C0
C0C0
C0C0
7F80
3F00
0000
0000
ENDCHAR
STARTCHAR U+0039
ENCODING 57
SWIDTH 960 0
DWIDTH 16 0
BBX 16 16 0 -2
BITMAP
3F00
7F80
C0C0
C0C0
C0C0
C0C0
7FC0
3FC0
00C0
01C0
0380
0700
3E00
3C00
0000
0000
ENDCHAR
STARTCHAR U+003A
ENCODING 58
SWIDTH 960 0
DWIDTH 16 0
BBX 16 16 0 -2
BITMAP
0000
0C00
0C00
0C00
0000
0000
0000
0000
0000
0000
0C00
0C00
0C00
0000
0000
0000
ENDCHAR
STARTCHAR U+003B
ENCODING 59
SWIDTH 960 0
DWIDTH 16 0
BBX 16 16 0 -2
BITMAP
0000
0C00
0C00
0C00
0000
0000
0000
0000
0000
0000
0C00
0C00
0C00
0C00
0C00
0800
ENDCHAR
STARTCHAR U+003C
ENCODING 60
SWIDTH 960 0
DWIDTH 16 0
BBX 16 16 0 -2
BITMAP
0180
0380
0700
0E00
1C00
3800
7000
7000
3800
1C00
0E00
0700
0380
0180
0000
0000
ENDCHAR
STARTCHAR U+003D
ENCODING 61
SWIDTH 960 0
DWIDTH 16 0
BBX 16 16 0 -2
BITMAP
0000
0000
0000
0000
FFE0
FFE0
0000
0000
FFE0
FFE0
0000
0000
0000
0000
0000
0000
ENDCHAR
STARTCHAR U+003E
ENCODING 62
SWIDTH 960 0
DWIDTH 16 0
BBX 16 16 0 -2
BITMAP
6000
7000
3800
1C00
0E00
0700
0380
0380
0700
0E00
1C00
3800
7000
6000
0000
0000
ENDCHAR
STARTCHAR U+003F
ENCODING 63
SWIDTH 960 0
DWIDTH 16 0
BBX 16 16 0 -2
BITMAP
3F00
7F80
E0C0
C0C0
01C0
0380
0700
0E00
0C00
0C00
0000
0000
0C00
0C00
0000
0000
ENDCHAR
STARTCHAR U+0040
ENCODING 64
SWIDTH 960 0
DWIDTH 16 0
BBX 16 16 0 -2
BITMAP
3F00
7F80
C0C0
C0C0
CCC0
CCC0
CCC0
CCC0
CFC0
CFC0
C000
C000
7F00
3F00
0000
0000
ENDCHAR
STARTCHAR U+0041
ENCODING 65
SWIDTH 960 0
DWIDTH 16 0
BBX 16 16 0 -2
BITMAP
3F00
7F80
C0C0
C0C0
C0C0
FFC0
FFC0
C0C0
C0C0
C0C0
C0C0
C0C0
C0C0
C0C0
0000
0000
ENDCHAR
STARTCHAR U+0042
ENCODING 66
SWIDTH 960 0
DWIDTH 16 0
BBX 16 16 0 -2
BITMAP
FF00
FF80
C0C0
C0C0
C0C0
FF80
FF80
C0C0
C0C0
C0C0
C0C0
C0C0
FF80
FF00
0000
0000
ENDCHAR
STARTCHAR U+0043
ENCODING 67
SWIDTH 960 0
DWIDTH 16 0
BBX 16 16 0 -2
BITMAP
3F00
7F80
C0C0
C0C0
C000
C000
C000
C000
C000
C000
C0C0
C0C0
7F80
3F00
0000
0000
ENDCHAR
STARTCHAR U+0044
ENCODING 68
SWIDTH 960 0
DWIDTH 16 0
BBX 16 16 0 -2
BITMAP
FF00
FF80
C1C0
C0C0
C0C0
C0C0
C0C0
C0C0
C0C0
C0C0
C0C0
C1C0
FF80
FF00
0000
0000
ENDCHAR
STARTCHAR U+0045
ENCODING 69
SWIDTH 960 0
DWIDTH 16 0
BBX 16 16 0 -2
BITMAP
FFC0
FFC0
C000
C000
C000
FE00
FE00
C000
C000
C000
C000
C000
FFC0
FFC0
0000
0000
ENDCHAR
STARTCHAR U+0046
ENCODING 70
SWIDTH 960 0
DWIDTH 16 0
BBX 16 16 0 -2
BITMAP
FFC0
FFC0
C000
C000
C000
FE00
FE00
C000
C000
C000
C000
C000
C000
C000
0000
0000
ENDCHAR
STARTCHAR U+0047
ENCODING 71
SWIDTH 960 0
DWIDTH 16 0
BBX 16 16 0 -2
BITMAP
3F80
7FC0
C0C0
C000
C000
C3C0
C3C0
C0C0
C0C0
C0C0
C0C0
C0C0
7F80
3F00
0000
0000
ENDCHAR
STARTCHAR U+0048
ENCODING 72
SWIDTH 960 0
DWIDTH 16 0
BBX 16 16 0 -2
BITMAP
C0C0
C0C0
C0C0
C0C0
FFC0
FFC0
C0C0
C0C0
C0C0
C0C0
C0C0
C0C0
C0C0
C0C0
0000
0000
ENDCHAR
STARTCHAR U+0049
ENCODING 73
SWIDTH 960 0
DWIDTH 16 0
BBX 16 16 0 -2
BITMAP
3F00
3F00
0C00
0C00
0C00
0C00
0C00
0C00
0C00
0C00
0C00
0C00
3F00
3F00
0000
0000
ENDCHAR
STARTCHAR U+004A
ENCODING 74
SWIDTH 960 0
DWIDTH 16 0
BBX 16 16 0 -2
BITMAP
00C0
00C0
00C0
00C0
00C0
00C0
00C0
00C0
00C0
00C0
C0C0
C0C0
7F80
3F00
0000
0000
ENDCHAR
STARTCHAR U+004B
ENCODING 75
SWIDTH 960 0
DWIDTH 16 0
BBX 16 16 0 -2
BITMAP
C0C0
C0C0
C180
C300
C600
FC00
FC00
C600
C300
C180
C0C0
C0C0
C0C0
C0C0
0000
0000
ENDCHAR
STARTCHAR U+004C
ENCODING 76
SWIDTH 960 0
DWIDTH 16 0
BBX 16 16 0 -2
BITMAP
C000
C000
C000
C000
C000
C000
C000
C000
C000
C000
C000
C000
FFC0
FFC0
0000
0000
ENDCHAR
STARTCHAR U+004D
ENCODING 77
SWIDTH 960 0
DWIDTH 16 0
BBX 16 16 0 -2
BITMAP
C0C0
E1C0
F3C0
DEC0
CCC0
C0C0
C0C0
C0C0
C0C0
C0C0
C0C0
C0C0
C0C0
C0C0
0000
0000
ENDCHAR
STARTCHAR U+004E
ENCODING 78
SWIDTH 960 0
DWIDTH 16 0
BBX 16 16 0 -2
BITMAP
C0C0
E0C0
F0C0
D8C0
CCC0
C6C0
C3C0
C1C0
C0C0
C0C0
C0C0
C0C0
C0C0
C0C0
0000
0000
ENDCHAR
STARTCHAR U+004F
ENCODING 79
SWIDTH 960 0
DWIDTH 16 0
BBX 16 16 0 -2
BITMAP
3F00
7F80
C0C0
C0C0
C0C0
C0C0
C0C0
C0C0
C0C0
C0C0
C0C0
C0C0
7F80
3F00
0000
0000
ENDCHAR
STARTCHAR U+0050
ENCODING 80
SWIDTH 960 0
DWIDTH 16 0
BBX 16 16 0 -2
BITMAP
FF00
FF80
C0C0
C0C0
C0C0
FF80
FF00
C000
C000
C000
C000
C000
C000
C000
0000
0000
ENDCHAR
STARTCHAR U+0051
ENCODING 81
SWIDTH 960 0
DWIDTH 16 0
BBX 16 16 0 -2
BITMAP
3F00
7F80
C0C0
C0C0
C0C0
C0C0
C0C0
C0C0
CCC0
CEC0
C7C0
C380
7FC0
3EC0
0000
0000
ENDCHAR
STARTCHAR U+0052
ENCODING 82
SWIDTH 960 0
DWIDTH 16 0
BBX 16 16 0 -2
BITMAP
FF00
FF80
C0C0
C0C0
C0C0
FF80
FF00
C180
C0C0
C0C0
C0C0
C0C0
C0C0
C0C0
0000
0000
ENDCHAR
STARTCHAR U+0053
ENCODING 83
SWIDTH 960 0
DWIDTH 16 0
BBX 16 16 0 -2
BITMAP
3FC0
7FC0
C000
C000
C000
7F00
3F80
00C0
00C0
00C0
00C0
00C0
FF80
FF00
0000
0000
ENDCHAR
STARTCHAR U+0054
ENCODING 84
SWIDTH 960 0
DWIDTH 16 0
BBX 16 16 0 -2
BITMAP
FFC0
FFC0
0C00
0C00
0C00
0C00
0C00
0C00
0C00
0C00
0C00
0C00
0C00
0C00
0000
0000
ENDCHAR
STARTCHAR U+0055
ENCODING 85
SWIDTH 960 0
DWIDTH 16 0
BBX 16 16 0 -2
BITMAP
C0C0
C0C0
C0C0
C0C0
C0C0
C0C0
C0C0
C0C0
C0C0
C0C0
C0C0
E1C0
7F80
3F00
0000
0000
ENDCHAR
STARTCHAR U+0056
ENCODING 86
SWIDTH 960 0
DWIDTH 16 0
BBX 16 16 0 -2
BITMAP
C0C0
C0C0
C0C0
C0C0
C0C0
C0C0
6180
6180
3300
3300
1E00
1E00
0C00
0C00
0000
0000
ENDCHAR
STARTCHAR U+0057
ENCODING 87
SWIDTH 960 0
DWIDTH 16 0
BBX 16 16 0 -2
BITMAP
C0C0
C0C0
C0C0
C0C0
C0C0
C0C0
C0C0
C0C0
C0C0
CCC0
DEC0
F3C0
E1C0
C0C0
0000
0000
ENDCHAR
STARTCHAR U+0058
ENCODING 88
SWIDTH 960 0
DWIDTH 16 0
BBX 16 16 0 -2
BITMAP
C0C0
C0C0
6180
3300
3300
1E00
0C00
0C00
1E00
3300
3300
6180
C0C0
C0C0
0000
0000
ENDCHAR
STARTCHAR U+0059
ENCODING 89
SWIDTH 960 0
DWIDTH 16 0
BBX 16 16 0 -2
BITMAP
C0C0
C0C0
6180
3300
3300
1E00
0C00
0C00
0C00
0C00
0C00
0C00
0C00
0C00
0000
0000
ENDCHAR
STARTCHAR U+005A
ENCODING 90
SWIDTH 960 0
DWIDTH 16 0
BBX 16 16 0 -2
BITMAP
FFC0
FFC0
00C0
01C0
0380
0700
0E00
1C00
3800
7000
E000
C000
FFC0
FFC0
0000
0000
ENDCHAR
STARTCHAR U+005B
ENCODING 91
SWIDTH 960 0
DWIDTH 16 0
BBX 16 16 0 -2
BITMAP
3F00
3F00
3000
3000
3000
3000
3000
3000
3000
3000
3000
3000
3F00
3F00
0000
0000
ENDCHAR
STARTCHAR U+005C
ENCODING 92
SWIDTH 960 0
DWIDTH 16 0
BBX 16 16 0 -2
BITMAP
C000
C000
6000
3000
3000
1800
0C00
0C00
0600
0300
0300
0180
00C0
00C0
0000
0000
ENDCHAR
STARTCHAR U+005D
ENCODING 93
SWIDTH 960 0
DWIDTH 16 0
BBX 16 16 0 -2
BITMAP
3F00
3F00
0300
0300
0300
0300
0300
0300
0300
0300
0300
0300
3F00
3F00
0000
0000
ENDCHAR
STARTCHAR U+005E
ENCODING 94
SWIDTH 960 0
DWIDTH 16 0
BBX 16 16 0 -2
BITMAP
0C00
1E00
3F00
7380
E1C0
C0C0
0000
0000
0000
0000
0000
0000
0000
0000
0000
0000
ENDCHAR
STARTCHAR U+005F
ENCODING 95
SWIDTH 960 0
DWIDTH 16 0
BBX 16 16 0 -2
BITMAP
0000
0000
0000
0000
0000
0000
0000
0000
0000
0000
0000
0000
0000
0000
FFC0
FFC0
ENDCHAR
STARTCHAR U+0060
ENCODING 96
SWIDTH 960 0
DWIDTH 16 0
BBX 16 16 0 -2
BITMAP
1800
1C00
0E00
0600
0000
0000
0000
0000
0000
0000
0000
0000
0000
0000
0000
0000
ENDCHAR
STARTCHAR U+0061
ENCODING 97
SWIDTH 960 0
DWIDTH 16 0
BBX 16 16 0 -2
BITMAP
0000
0000
0000
0000
7F00
7F80
00C0
00C0
3FC0
7FC0
C0C0
C0C0
7FC0
3FC0
0000
0000
ENDCHAR
STARTCHAR U+0062
ENCODING 98
SWIDTH 960 0
DWIDTH 16 0
BBX 16 16 0 -2
BITMAP
C000
C000
C000
C000
DF00
FF80
E0C0
C0C0
C0C0
C0C0
C0C0
C0C0
FF80
FF00
0000
0000
ENDCHAR
STARTCHAR U+0063
ENCODING 99
SWIDTH 960 0
DWIDTH 16 0
BBX 16 16 0 -2
BITMAP
0000
0000
0000
0000
3F00
7F80
C0C0
C0C0
C000
C000
C0C0
C0C0
7F80
3F00
0000
0000
ENDCHAR
STARTCHAR U+0064
ENCODING 100
SWIDTH 960 0
DWIDTH 16 0
BBX 16 16 0 -2
BITMAP
00C0
00C0
00C0
00C0
3EC0
7FC0
C1C0
C0C0
C0C0
C0C0
C0C0
C0C0
7FC0
3FC0
0000
0000
ENDCHAR
STARTCHAR U+0065
ENCODING 101
SWIDTH 960 0
DWIDTH 16 0
BBX 16 16 0 -2
BITMAP
0000
0000
0000
0000
3F00
7F80
C0C0
C0C0
FFC0
FFC0
C000
C000
7FC0
3FC0
0000
0000
ENDCHAR
STARTCHAR U+0066
ENCODING 102
SWIDTH 960 0
DWIDTH 16 0
BBX 16 16 0 -2
BITMAP
0780
0F80
1800
1800
7F80
7F80
1800
1800
1800
1800
1800
1800
1800
1800
0000
0000
ENDCHAR
STARTCHAR U+0067
ENCODING 103
SWIDTH 960 0
DWIDTH 16 0
BBX 16 16 0 -2
BITMAP
0000
0000
0000
0000
3FC0
7FC0
C0C0
C0C0
C0C0
C0C0
7FC0
3FC0
00C0
00C0
FF80
FF00
ENDCHAR
STARTCHAR U+0068
ENCODING 104
SWIDTH 960 0
DWIDTH 16 0
BBX 16 16 0 -2
BITMAP
C000
C000
C000
C000
CF00
DF80
F0C0
E0C0
C0C0
C0C0
C0C0
C0C0
C0C0
C0C0
0000
0000
ENDCHAR
STARTCHAR U+0069
ENCODING 105
SWIDTH 960 0
DWIDTH 16 0
BBX 16 16 0 -2
BITMAP
0C00
0C00
0000
0000
0C00
0C00
0C00
0C00
0C00
0C00
0C00
0C00
0C00
0C00
0000
0000
ENDCHAR
STARTCHAR U+006A
ENCODING 106
SWIDTH 960 0
DWIDTH 16 0
BBX 16 16 0 -2
BITMAP
0180
0180
0000
0000
0180
0180
0180
0180
0180
0180
0180
0180
6180
6180
3F00
1E00
ENDCHAR
STARTCHAR U+006B
ENCODING 107
SWIDTH 960 0
DWIDTH 16 0
BBX 16 16 0 -2
BITMAP
C000
C000
C000
C000
C300
C700
CE00
DC00
F800
F800
DC00
CE00
C700
C300
0000
0000
ENDCHAR
STARTCHAR U+006C
ENCODING 108
SWIDTH 960 0
DWIDTH 16 0
BBX 16 16 0 -2
BITMAP
0C00
0C00
0C00
0C00
0C00
0C00
0C00
0C00
0C00
0C00
0C00
0C00
0F00
0700
0000
0000
ENDCHAR
STARTCHAR U+006D
ENCODING 109
SWIDTH 960 0
DWIDTH 16 0
BBX 16 16 0 -2
BITMAP
0000
0000
0000
0000
F700
FF80
DDC0
CCC0
CCC0
CCC0
CCC0
CCC0
CCC0
CCC0
0000
0000
ENDCHAR
STARTCHAR U+006E
ENCODING 110
SWIDTH 960 0
DWIDTH 16 0
BBX 16 16 0 -2
BITMAP
0000
0000
0000
0000
FF00
FF80
C1C0
C0C0
C0C0
C0C0
C0C0
C0C0
C0C0
C0C0
0000
0000
ENDCHAR
STARTCHAR U+006F
ENCODING 111
SWIDTH 960 0
DWIDTH 16 0
BBX 16 16 0 -2
BITMAP
0000
0000
0000
0000
3F00
7F80
C0C0
C0C0
C0C0
C0C0
C0C0
C0C0
7F80
3F00
0000
0000
ENDCHAR
STARTCHAR U+0070
ENCODING 112
SWIDTH 960 0
DWIDTH 16 0
BBX 16 16 0 -2
BITMAP
0000
0000
0000
0000
DF00
FF80
E0C0
C0C0
C0C0
C0C0
FF80
FF00
C000
C000
C000
C000
ENDCHAR
STARTCHAR U+0071
ENCODING 113
SWIDTH 960 0
DWIDTH 16 0
BBX 16 16 0 -2
BITMAP
0000
0000
0000
0000
3EC0
7FC0
C1C0
C0C0
C0C0
C0C0
7FC0
3FC0
00C0
00C0
00C0
00C0
ENDCHAR
STARTCHAR U+0072
ENCODING 114
SWIDTH 960 0
DWIDTH 16 0
BBX 16 16 0 -2
BITMAP
0000
0000
0000
0000
CF00
DF80
F180
E000
C000
C000
C000
C000
C000
C000
0000
0000
ENDCHAR
STARTCHAR U+0073
ENCODING 115
SWIDTH 960 0
DWIDTH 16 0
BBX 16 16 0 -2
BITMAP
0000
0000
0000
0000
3FC0
7FC0
C000
C000
7F00
3F80
00C0
00C0
FF80
FF00
0000
0000
ENDCHAR
STARTCHAR U+0074
ENCODING 116
SWIDTH 960 0
DWIDTH 16 0
BBX 16 16 0 -2
BITMAP
0C00
0C00
0C00
0C00
3F00
3F00
0C00
0C00
0C00
0C00
0C00
0C00
0F00
0700
0000
0000
ENDCHAR
STARTCHAR U+0075
ENCODING 117
SWIDTH 960 0
DWIDTH 16 0
BBX 16 16 0 -2
BITMAP
0000
0000
0000
0000
C0C0
C0C0
C0C0
C0C0
C0C0
C0C0
C0C0
C1C0
7FC0
3EC0
0000
0000
ENDCHAR
STARTCHAR U+0076
ENCODING 118
SWIDTH 960 0
DWIDTH 16 0
BBX 16 16 0 -2
BITMAP
0000
0000
0000
0000
C0C0
C0C0
6180
6180
3300
3300
1E00
1E00
0C00
0C00
0000
0000
ENDCHAR
STARTCHAR U+0077
ENCODING 119
SWIDTH 960 0
DWIDTH 16 0
BBX 16 16 0 -2
BITMAP
0000
0000
0000
0000
CCC0
CCC0
CCC0
CCC0
CCC0
CCC0
CCC0
EEC0
7FC0
3BC0
0000
0000
ENDCHAR
STARTCHAR U+0078
ENCODING 120
SWIDTH 960 0
DWIDTH 16 0
BBX 16 16 0 -2
BITMAP
0000
0000
0000
0000
60C0
60C0
3180
1B00
0E00
0E00
1B00
3180
60C0
60C0
0000
0000
ENDCHAR
STARTCHAR U+0079
ENCODING 121
SWIDTH 960 0
DWIDTH 16 0
BBX 16 16 0 -2
BITMAP
0000
0000
0000
0000
C0C0
C0C0
C0C0
C0C0
C0C0
C0C0
7FC0
3FC0
00C0
00C0
3F80
3F00
ENDCHAR
STARTCHAR U+007A
ENCODING 122
SWIDTH 960 0
DWIDTH 16 0
BBX 16 16 0 -2
BITMAP
0000
0000
0000
0000
FFC0
FFC0
0380
0700
0E00
1C00
3800
7000
FFC0
FFC0
0000
0000
ENDCHAR
STARTCHAR U+007B
ENCODING 123
SWIDTH 960 0
DWIDTH 16 0
BBX 16 16 0 -2
BITMAP
0300
0700
0C00
0C00
0C00
0C00
3800
3800
0C00
0C00
0C00
0C00
0700
0300
0000
0000
ENDCHAR
STARTCHAR U+007C
ENCODING 124
SWIDTH 960 0
DWIDTH 16 0
BBX 16 16 0 -2
BITMAP
0C00
0C00
0C00
0C00
0C00
0C00
0C00
0C00
0C00
0C00
0C00
0C00
0C00
0C00
0000
0000
ENDCHAR
STARTCHAR U+007D
ENCODING 125
SWIDTH 960 0
DWIDTH 16 0
BBX 16 16 0 -2
BITMAP
3000
3800
0C00
0C00
0C00
0C00
0700
0700
0C00
0C00
0C00
0C00
3800
3000
0000
0000
ENDCHAR
STARTCHAR U+007E
ENCODING 126
SWIDTH 960 0
DWIDTH 16 0
BBX 16 16 0 -2
BITMAP
38C0
7DC0
EF80
C700
0000
0000
0000
0000
0000
0000
0000
0000
0000
0000
0000
0000
ENDCHAR
STARTCHAR U+F100
ENCODING 61696
SWIDTH 960 0
DWIDTH 16 0
BBX 16 16 0 -2
BITMAP
0000
0000
0000
0000
0000
0000
0000
0000
0000
0000
0000
0000
0000
0000
0000
0000
ENDCHAR
STARTCHAR U+F101
ENCODING 61697
SWIDTH 960 0
DWIDTH 16 0
BBX 16 16 0 -2
BITMAP
0000
7FF8
0018
0018
0018
0018
0018
0018
0018
0018
0018
0000
0000
0000
0000
0000
ENDCHAR
STARTCHAR U+F102
ENCODING 61698
SWIDTH 960 0
DWIDTH 16 0
BBX 16 16 0 -2
BITMAP
0000
7FF8
0618
0618
0618
0618
0618
0618
0618
0618
0618
0000
0000
0000
0000
0000
ENDCHAR
STARTCHAR U+F103
ENCODING 61699
SWIDTH 960 0
DWIDTH 16 0
BBX 16 16 0 -2
BITMAP
0000
7E60
0660
0660
0660
0660
06F0
06F0
0798
0798
070C
0000
0000
0000
0000
0000
ENDCHAR
STARTCHAR U+F104
ENCODING 61700
SWIDTH 960 0
DWIDTH 16 0
BBX 16 16 0 -2
BITMAP
0000
6000
6000
6000
6000
6000
6000
6000
6000
6000
3FF8
0000
0000
0000
0000
0000
ENDCHAR
STARTCHAR U+F105
ENCODING 61701
SWIDTH 960 0
DWIDTH 16 0
BBX 16 16 0 -2
BITMAP
0000
63FC
6060
6060
6060
6060
60F0
60F0
6198
6198
3F0C
0000
0000
0000
0000
0000
ENDCHAR
STARTCHAR U+F106
ENCODING 61702
SWIDTH 960 0
DWIDTH 16 0
BBX 16 16 0 -2
BITMAP
0000
60F0
6000
63FC
6000
60F0
6198
6198
6198
6198
3EF0
0000
0000
0000
0000
0000
ENDCHAR
STARTCHAR U+F107
ENCODING 61703
SWIDTH 960 0
DWIDTH 16 0
BBX 16 16 0 -2
BITMAP
0000
7FF8
6000
6000
6000
6000
6000
6000
6000
6000
3FF8
0000
0000
0000
0000
0000
ENDCHAR
STARTCHAR U+F108
ENCODING 61704
SWIDTH 960 0
DWIDTH 16 0
BBX 16 16 0 -2
BITMAP
0000
7EF8
6180
6180
6180
6180
6180
6180
6180
6180
3EF8
0000
0000
0000
0000
0000
ENDCHAR
STARTCHAR U+F109
ENCODING 61705
SWIDTH 960 0
DWIDTH 16 0
BBX 16 16 0 -2
BITMAP
0000
7FF8
0018
0018
0018
7FF0
6000
6000
6000
6000
3FF8
0000
0000
0000
0000
0000
ENDCHAR
STARTCHAR U+F10A
ENCODING 61706
SWIDTH 960 0
DWIDTH 16 0
BBX 16 16 0 -2
BITMAP
0000
7EFC
060C
060C
060C
7C0C
600C
600C
600C
600C
3E0C
0000
0000
0000
0000
0000
ENDCHAR
STARTCHAR U+F10B
ENCODING 61707
SWIDTH 960 0
DWIDTH 16 0
BBX 16 16 0 -2
BITMAP
0000
7EFC
06CC
06CC
06CC
7CCC
60CC
60CC
60CC
60CC
3E7C
0000
0000
0000
0000
0000
ENDCHAR
STARTCHAR U+F10C
ENCODING 61708
SWIDTH 960 0
DWIDTH 16 0
BBX 16 16 0 -2
BITMAP
0000
7ECC
06CC
06CC
06CC
7CFC
60CC
60CC
60CC
60CC
3E7C
0000
0000
0000
0000
0000
ENDCHAR
STARTCHAR U+F10D
ENCODING 61709
SWIDTH 960 0
DWIDTH 16 0
BBX 16 16 0 -2
BITMAP
0000
7E60
0660
0660
0660
7C60
60F0
60F0
6198
6198
3F0C
0000
0000
0000
0000
0000
ENDCHAR
STARTCHAR U+F10E
ENCODING 61710
SWIDTH 960 0
DWIDTH 16 0
BBX 16 16 0 -2
BITMAP
0000
7EFC
06C0
06C0
06C0
7CF8
60C0
60C0
60C0
60C0
3E7C
0000
0000
0000
0000
0000
ENDCHAR
STARTCHAR U+F10F
ENCODING 61711
SWIDTH 960 0
DWIDTH 16 0
BBX 16 16 0 -2
BITMAP
0000
7DFC
0600
06D8
06D8
7CD8
60D8
60D8
60D8
60D8
3FFC
0000
0000
0000
0000
0000
ENDCHAR
STARTCHAR U+F110
ENCODING 61712
SWIDTH 960 0
DWIDTH 16 0
BBX 16 16 0 -2
BITMAP
0000
7EF0
0600
07FC
0600
7CF0
6198
6198
6198
6198
3EF0
0000
0000
0000
0000
0000
ENDCHAR
STARTCHAR U+F111
ENCODING 61713
SWIDTH 960 0
DWIDTH 16 0
BBX 16 16 0 -2
BITMAP
0000
7FF8
6018
6018
6018
6018
6018
6018
6018
6018
3FF8
0000
0000
0000
0000
0000
ENDCHAR
STARTCHAR U+F112
ENCODING 61714
SWIDTH 960 0
DWIDTH 16 0
BBX 16 16 0 -2
BITMAP
0000
6018
6018
6018
6018
7FF8
6018
6018
6018
6018
3FF8
0000
0000
0000
0000
0000
ENDCHAR
STARTCHAR U+F113
ENCODING 61715
SWIDTH 960 0
DWIDTH 16 0
BBX 16 16 0 -2
BITMAP
0000
66CC
66CC
66CC
66CC
7EFC
66CC
66CC
66CC
66CC
3E7C
0000
0000
0000
0000
0000
ENDCHAR
STARTCHAR U+F114
ENCODING 61716
SWIDTH 960 0
DWIDTH 16 0
BBX 16 16 0 -2
BITMAP
0000
6660
6660
6660
6660
7E60
66F0
66F0
6798
6798
3F0C
0000
0000
0000
0000
0000
ENDCHAR
STARTCHAR U+F115
ENCODING 61717
SWIDTH 960 0
DWIDTH 16 0
BBX 16 16 0 -2
BITMAP
0000
0300
0300
0300
0780
0780
0CC0
0CC0
1860
3030
6018
0000
0000
0000
0000
0000
ENDCHAR
STARTCHAR U+F116
ENCODING 61718
SWIDTH 960 0
DWIDTH 16 0
BBX 16 16 0 -2
BITMAP
0000
0C60
0C60
0C60
0C60
0C60
1EF0
1EF0
3398
3398
610C
0000
0000
0000
0000
0000
ENDCHAR
STARTCHAR U+F117
ENCODING 61719
SWIDTH 960 0
DWIDTH 16 0
BBX 16 16 0 -2
BITMAP
0000
0FC0
1860
3030
6018
6018
6018
6018
3030
1860
0FC0
0000
0000
0000
0000
0000
ENDCHAR
STARTCHAR U+F118
ENCODING 61720
SWIDTH 960 0
DWIDTH 16 0
BBX 16 16 0 -2
BITMAP
0000
7FF8
0300
0300
0300
0780
0780
0CC0
1860
3030
6018
0000
0000
0000
0000
0000
ENDCHAR
STARTCHAR U+F119
ENCODING 61721
SWIDTH 960 0
DWIDTH 16 0
BBX 16 16 0 -2
BITMAP
0000
7FFC
0C60
0C60
0C60
0C60
1EF0
1EF0
3398
3398
610C
0000
0000
0000
0000
0000
ENDCHAR
STARTCHAR U+F11A
ENCODING 61722
SWIDTH 960 0
DWIDTH 16 0
BBX 16 16 0 -2
BITMAP
0000
1FE0
0000
7FF8
0300
0300
0780
0780
0CC0
1860
7038
0000
0000
0000
0000
0000
ENDCHAR
STARTCHAR U+F11B
ENCODING 61723
SWIDTH 960 0
DWIDTH 16 0
BBX 16 16 0 -2
BITMAP
0000
7FF8
0018
0018
0018
0018
7FF8
0018
0018
0018
0018
0000
0000
0000
0000
0000
ENDCHAR
STARTCHAR U+F11C
ENCODING 61724
SWIDTH 960 0
DWIDTH 16 0
BBX 16 16 0 -2
BITMAP
0000
7FF8
6000
6000
6000
7FF8
6000
6000
6000
6000
3FF8
0000
0000
0000
0000
0000
ENDCHAR
STARTCHAR U+F11D
ENCODING 61725
SWIDTH 960 0
DWIDTH 16 0
BBX 16 16 0 -2
BITMAP
0000
7FF8
1860
1860
1860
1860
1860
1860
1860
1860
7FF8
0000
0000
0000
0000
0000
ENDCHAR
STARTCHAR U+F11E
ENCODING 61726
SWIDTH 960 0
DWIDTH 16 0
BBX 16 16 0 -2
BITMAP
0000
1FE0
0000
7FF8
0000
0FC0
1860
3030
3030
1860
0FC0
0000
0000
0000
0000
0000
ENDCHAR
STARTCHAR U+F11F
ENCODING 61727
SWIDTH 960 0
DWIDTH 16 0
BBX 16 16 0 -2
BITMAP
0300
0300
0300
0300
0300
0300
03E0
0300
0300
0300
0300
0300
0300
0300
0000
0000
ENDCHAR
STARTCHAR U+F120
ENCODING 61728
SWIDTH 960 0
DWIDTH 16 0
BBX 16 16 0 -2
BITMAP
0CC0
0CC0
0CC0
0CC0
0CC0
0CC0
0FC0
0CC0
0CC0
0CC0
0CC0
0CC0
0CC0
0CC0
0000
0000
ENDCHAR
STARTCHAR U+F121
ENCODING 61729
SWIDTH 960 0
DWIDTH 16 0
BBX 16 16 0 -2
BITMAP
0300
0300
0300
0300
03E0
0300
0300
0300
03E0
0300
0300
0300
0300
0300
0000
0000
ENDCHAR
STARTCHAR U+F122
ENCODING 61730
SWIDTH 960 0
DWIDTH 16 0
BBX 16 16 0 -2
BITMAP
0CC0
0CC0
0CC0
0CC0
0FC0
0CC0
0CC0
0CC0
0FC0
0CC0
0CC0
0CC0
0CC0
0CC0
0000
0000
ENDCHAR
STARTCHAR U+F123
ENCODING 61731
SWIDTH 960 0
DWIDTH 16 0
BBX 16 16 0 -2
BITMAP
0300
0300
0300
0300
0300
0300
1F00
0300
0300
0300
0300
0300
0300
0300
0000
0000
ENDCHAR
STARTCHAR U+F124
ENCODING 61732
SWIDTH 960 0
DWIDTH 16 0
BBX 16 16 0 -2
BITMAP
0CC0
0CC0
0CC0
0CC0
0CC0
0CC0
7CC0
0CC0
0CC0
0CC0
0CC0
0CC0
0CC0
0CC0
0000
0000
ENDCHAR
STARTCHAR U+F125
ENCODING 61733
SWIDTH 960 0
DWIDTH 16 0
BBX 16 16 0 -2
BITMAP
0300
0300
0300
0300
1F00
0300
0300
0300
1F00
0300
0300
0300
0300
0300
0000
0000
ENDCHAR
STARTCHAR U+F126
ENCODING 61734
SWIDTH 960 0
DWIDTH 16 0
BBX 16 16 0 -2
BITMAP
0CC0
0CC0
0CC0
0CC0
7CC0
0CC0
0CC0
0CC0
7CC0
0CC0
0CC0
0CC0
0CC0
0CC0
0000
0000
ENDCHAR
STARTCHAR U+F127
ENCODING 61735
SWIDTH 960 0
DWIDTH 16 0
BBX 16 16 0 -2
BITMAP
0000
0000
0000
0000
0000
0000
0000
0000
0300
0300
0300
FFFC
0000
0000
0000
0000
ENDCHAR
STARTCHAR U+F128
ENCODING 61736
SWIDTH 960 0
DWIDTH 16 0
BBX 16 16 0 -2
BITMAP
0030
0030
0030
0030
0030
0030
003C
0030
1830
1830
1830
FFB0
0030
0030
0000
0000
ENDCHAR
STARTCHAR U+F129
ENCODING 61737
SWIDTH 960 0
DWIDTH 16 0
BBX 16 16 0 -2
BITMAP
006C
006C
006C
006C
006C
006C
007C
006C
186C
186C
186C
FF6C
006C
006C
0000
0000
ENDCHAR
STARTCHAR U+F12A
ENCODING 61738
SWIDTH 960 0
DWIDTH 16 0
BBX 16 16 0 -2
BITMAP
000C
000C
000C
000C
000C
000C
000C
000C
0C0C
0C0C
0C0C
FFEC
000C
000C
0000
0000
ENDCHAR
STARTCHAR U+F12B
ENCODING 61739
SWIDTH 960 0
DWIDTH 16 0
BBX 16 16 0 -2
BITMAP
0000
0000
0000
0000
0000
0000
0000
0000
1860
1860
1860
FFFC
0000
0000
0000
0000
ENDCHAR
STARTCHAR U+F12C
ENCODING 61740
SWIDTH 960 0
DWIDTH 16 0
BBX 16 16 0 -2
BITMAP
0000
0000
0000
0000
0000
0000
FFFC
0300
0300
0300
0300
0300
0300
0300
0000
0000
ENDCHAR
STARTCHAR U+F12D
ENCODING 61741
SWIDTH 960 0
DWIDTH 16 0
BBX 16 16 0 -2
BITMAP
000C
000C
000C
000C
000C
000C
FFEC
0C0C
0C0C
0C7C
0C0C
0C0C
0C0C
0C0C
0000
0000
ENDCHAR
STARTCHAR U+F12E
ENCODING 61742
SWIDTH 960 0
DWIDTH 16 0
BBX 16 16 0 -2
BITMAP
006C
006C
006C
006C
006C
006C
FF6C
186C
186C
19EC
186C
186C
186C
186C
0000
0000
ENDCHAR
STARTCHAR U+F12F
ENCODING 61743
SWIDTH 960 0
DWIDTH 16 0
BBX 16 16 0 -2
BITMAP
000C
000C
000C
000C
000C
000C
FFEC
0C0C
0C0C
0C0C
0C0C
0C0C
0C0C
0C0C
0000
0000
ENDCHAR
STARTCHAR U+F130
ENCODING 61744
SWIDTH 960 0
DWIDTH 16 0
BBX 16 16 0 -2
BITMAP
0000
0000
0000
0000
0000
0000
FFFC
1860
1860
1860
1860
1860
1860
1860
0000
0000
ENDCHAR
STARTCHAR U+F131
ENCODING 61745
SWIDTH 960 0
DWIDTH 16 0
BBX 16 16 0 -2
BITMAP
0000
0000
0000
0000
0000
0000
FFFC
0000
0000
0000
0000
0000
0000
0000
0000
0000
ENDCHAR
STARTCHAR U+F132
ENCODING 61746
SWIDTH 960 0
DWIDTH 16 0
BBX 16 16 0 -2
BITMAP
000C
000C
000C
000C
000C
000C
000C
000C
000C
000C
000C
FFEC
000C
000C
0000
0000
ENDCHAR
STARTCHAR U+F133
ENCODING 61747
SWIDTH 960 0
DWIDTH 16 0
BBX 16 16 0 -2
BITMAP
0300
0300
0300
0300
0300
0300
0300
0300
0300
0300
0300
0300
0300
0300
0000
0000
ENDCHAR
STARTCHAR U+F134
ENCODING 61748
SWIDTH 960 0
DWIDTH 16 0
BBX 16 16 0 -2
BITMAP
0000
FF00
0300
0300
0300
0300
0600
0600
0C00
3800
E000
0000
0000
0000
0000
0000
ENDCHAR
STARTCHAR U+F135
ENCODING 61749
SWIDTH 960 0
DWIDTH 16 0
BBX 16 16 0 -2
BITMAP
0000
FF00
1B00
1B00
1B00
1B00
1B00
3600
3600
6C00
D800
0000
0000
0000
0000
0000
ENDCHAR
STARTCHAR U+F136
ENCODING 61750
SWIDTH 960 0
DWIDTH 16 0
BBX 16 16 0 -2
BITMAP
0000
C000
C000
C000
C000
C000
C000
C000
C000
C000
7F00
0000
0000
0000
0000
0000
ENDCHAR
STARTCHAR U+F137
ENCODING 61751
SWIDTH 960 0
DWIDTH 16 0
BBX 16 16 0 -2
BITMAP
0000
FF00
C000
C000
C000
C000
C000
C000
C000
C000
7F00
0000
0000
0000
0000
0000
ENDCHAR
STARTCHAR U+F138
ENCODING 61752
SWIDTH 960 0
DWIDTH 16 0
BBX 16 16 0 -2
BITMAP
0000
FF00
CC00
CC00
CC00
CC00
CC00
CC00
CC00
CC00
7700
0000
0000
0000
0000
0000
ENDCHAR
STARTCHAR U+F139
ENCODING 61753
SWIDTH 960 0
DWIDTH 16 0
BBX 16 16 0 -2
BITMAP
0000
FF00
0300
0300
0300
FE00
C000
C000
C000
C000
7F00
0000
0000
0000
0000
0000
ENDCHAR
STARTCHAR U+F13A
ENCODING 61754
SWIDTH 960 0
DWIDTH 16 0
BBX 16 16 0 -2
BITMAP
0000
FF00
C300
C300
C300
C300
C300
C300
C300
C300
7F00
0000
0000
0000
0000
0000
ENDCHAR
STARTCHAR U+F13B
ENCODING 61755
SWIDTH 960 0
DWIDTH 16 0
BBX 16 16 0 -2
BITMAP
0000
C300
C300
C300
C300
FF00
C300
C300
C300
C300
7F00
0000
0000
0000
0000
0000
ENDCHAR
STARTCHAR U+F13C
ENCODING 61756
SWIDTH 960 0
DWIDTH 16 0
BBX 16 16 0 -2
BITMAP
0000
DB00
DB00
DB00
DB00
FF00
DB00
DB00
DB00
DB00
7F00
0000
0000
0000
0000
0000
ENDCHAR
STARTCHAR U+F13D
ENCODING 61757
SWIDTH 960 0
DWIDTH 16 0
BBX 16 16 0 -2
BITMAP
0000
1800
1800
1800
1800
1800
3C00
3C00
6600
6600
C300
0000
0000
0000
0000
0000
ENDCHAR
STARTCHAR U+F13E
ENCODING 61758
SWIDTH 960 0
DWIDTH 16 0
BBX 16 16 0 -2
BITMAP
0000
6600
6600
6600
6600
6600
6600
FF00
DB00
DB00
DB00
0000
0000
0000
0000
0000
ENDCHAR
STARTCHAR U+F13F
ENCODING 61759
SWIDTH 960 0
DWIDTH 16 0
BBX 16 16 0 -2
BITMAP
0000
3C00
6600
C300
C300
C300
C300
C300
C300
6600
3C00
0000
0000
0000
0000
0000
ENDCHAR
STARTCHAR U+F140
ENCODING 61760
SWIDTH 960 0
DWIDTH 16 0
BBX 16 16 0 -2
BITMAP
0000
FF00
1800
1800
1800
1800
3C00
3C00
6600
6600
C300
0000
0000
0000
0000
0000
ENDCHAR
STARTCHAR U+F141
ENCODING 61761
SWIDTH 960 0
DWIDTH 16 0
BBX 16 16 0 -2
BITMAP
0000
FF00
6600
6600
6600
6600
6600
6600
FF00
DB00
DB00
0000
0000
0000
0000
0000
ENDCHAR
STARTCHAR U+F142
ENCODING 61762
SWIDTH 960 0
DWIDTH 16 0
BBX 16 16 0 -2
BITMAP
0000
3C00
0000
FF00
1800
1800
3C00
3C00
6600
6600
C300
0000
0000
0000
0000
0000
ENDCHAR
STARTCHAR U+F143
ENCODING 61763
SWIDTH 960 0
DWIDTH 16 0
BBX 16 16 0 -2
BITMAP
0000
FF00
0300
0300
0300
FF00
0600
0600
0C00
3800
E000
0000
0000
0000
0000
0000
ENDCHAR
STARTCHAR U+F144
ENCODING 61764
SWIDTH 960 0
DWIDTH 16 0
BBX 16 16 0 -2
BITMAP
0000
FF00
C000
C000
C000
FC00
C000
C000
C000
C000
7F00
0000
0000
0000
0000
0000
ENDCHAR
STARTCHAR U+F145
ENCODING 61765
SWIDTH 960 0
DWIDTH 16 0
BBX 16 16 0 -2
BITMAP
0000
FF00
0000
6600
6600
6600
6600
6600
6600
6600
FF00
0000
0000
0000
0000
0000
ENDCHAR
STARTCHAR U+F146
ENCODING 61766
SWIDTH 960 0
DWIDTH 16 0
BBX 16 16 0 -2
BITMAP
0000
3C00
0000
FF00
0000
3C00
6600
6600
6600
6600
3C00
0000
0000
0000
0000
0000
ENDCHAR
STARTCHAR U+F147
ENCODING 61767
SWIDTH 960 0
DWIDTH 16 0
BBX 16 16 0 -2
BITMAP
0000
FF00
0300
0300
0300
0300
0300
0300
0300
0000
0000
0000
0000
0000
0000
0000
ENDCHAR
STARTCHAR U+F148
ENCODING 61768
SWIDTH 960 0
DWIDTH 16 0
BBX 16 16 0 -2
BITMAP
0000
FF00
1B00
1B00
1B00
1B00
3300
6600
0000
0000
0000
0000
0000
0000
0000
0000
ENDCHAR
STARTCHAR U+F149
ENCODING 61769
SWIDTH 960 0
DWIDTH 16 0
BBX 16 16 0 -2
BITMAP
0000
C000
C000
C000
C000
C000
C000
7F00
0000
0000
0000
0000
0000
0000
0000
0000
ENDCHAR
STARTCHAR U+F14A
ENCODING 61770
SWIDTH 960 0
DWIDTH 16 0
BBX 16 16 0 -2
BITMAP
0000
FF00
C000
C000
C000
C000
C000
7F00
0000
0000
0000
0000
0000
0000
0000
0000
ENDCHAR
STARTCHAR U+F14B
ENCODING 61771
SWIDTH 960 0
DWIDTH 16 0
BBX 16 16 0 -2
BITMAP
0000
FF00
CC00
CC00
CC00
CC00
CC00
7700
0000
0000
0000
0000
0000
0000
0000
0000
ENDCHAR
STARTCHAR U+F14C
ENCODING 61772
SWIDTH 960 0
DWIDTH 16 0
BBX 16 16 0 -2
BITMAP
0000
FF00
0300
0300
FE00
C000
C000
7F00
0000
0000
0000
0000
0000
0000
0000
0000
ENDCHAR
STARTCHAR U+F14D
ENCODING 61773
SWIDTH 960 0
DWIDTH 16 0
BBX 16 16 0 -2
BITMAP
0000
FF00
C300
C300
C300
C300
C300
7F00
0000
0000
0000
0000
0000
0000
0000
0000
ENDCHAR
STARTCHAR U+F14E
ENCODING 61774
SWIDTH 960 0
DWIDTH 16 0
BBX 16 16 0 -2
BITMAP
0000
C300
C300
C300
FF00
C300
C300
7F00
0000
0000
0000
0000
0000
0000
0000
0000
ENDCHAR
STARTCHAR U+F14F
ENCODING 61775
SWIDTH 960 0
DWIDTH 16 0
BBX 16 16 0 -2
BITMAP
0000
DB00
DB00
DB00
FF00
DB00
DB00
7F00
0000
0000
0000
0000
0000
0000
0000
0000
ENDCHAR
STARTCHAR U+F150
ENCODING 61776
SWIDTH 960 0
DWIDTH 16 0
BBX 16 16 0 -2
BITMAP
0000
1800
1800
1800
1800
3C00
6600
C300
0000
0000
0000
0000
0000
0000
0000
0000
ENDCHAR
STARTCHAR U+F151
ENCODING 61777
SWIDTH 960 0
DWIDTH 16 0
BBX 16 16 0 -2
BITMAP
0000
6600
6600
6600
6600
FF00
DB00
DB00
0000
0000
0000
0000
0000
0000
0000
0000
ENDCHAR
STARTCHAR U+F152
ENCODING 61778
SWIDTH 960 0
DWIDTH 16 0
BBX 16 16 0 -2
BITMAP
0000
3C00
6600
C300
C300
C300
6600
3C00
0000
0000
0000
0000
0000
0000
0000
0000
ENDCHAR
STARTCHAR U+F153
ENCODING 61779
SWIDTH 960 0
DWIDTH 16 0
BBX 16 16 0 -2
BITMAP
0000
FF00
1800
1800
1800
3C00
6600
C300
0000
0000
0000
0000
0000
0000
0000
0000
ENDCHAR
STARTCHAR U+F154
ENCODING 61780
SWIDTH 960 0
DWIDTH 16 0
BBX 16 16 0 -2
BITMAP
0000
FF00
6600
6600
6600
7E00
DB00
DB00
0000
0000
0000
0000
0000
0000
0000
0000
ENDCHAR
STARTCHAR U+F155
ENCODING 61781
SWIDTH 960 0
DWIDTH 16 0
BBX 16 16 0 -2
BITMAP
0000
7E00
0000
FF00
1800
3C00
6600
C300
0000
0000
0000
0000
0000
0000
0000
0000
ENDCHAR
STARTCHAR U+F156
ENCODING 61782
SWIDTH 960 0
DWIDTH 16 0
BBX 16 16 0 -2
BITMAP
0000
FF00
0300
0300
FF00
0300
0300
0300
0300
0000
0000
0000
0000
0000
0000
0000
ENDCHAR
STARTCHAR U+F157
ENCODING 61783
SWIDTH 960 0
DWIDTH 16 0
BBX 16 16 0 -2
BITMAP
0000
FF00
C000
C000
FE00
C000
C000
7F00
0000
0000
0000
0000
0000
0000
0000
0000
ENDCHAR
STARTCHAR U+F158
ENCODING 61784
SWIDTH 960 0
DWIDTH 16 0
BBX 16 16 0 -2
BITMAP
0000
FF00
0000
6600
6600
6600
6600
FF00
0000
0000
0000
0000
0000
0000
0000
0000
ENDCHAR
STARTCHAR U+F159
ENCODING 61785
SWIDTH 960 0
DWIDTH 16 0
BBX 16 16 0 -2
BITMAP
0000
3C00
0000
FF00
0000
3C00
6600
6600
3C00
0000
0000
0000
0000
0000
0000
0000
ENDCHAR
STARTCHAR U+F15A
ENCODING 61786
SWIDTH 960 0
DWIDTH 16 0
BBX 16 16 0 -2
BITMAP
0000
7FF8
0018
0018
0018
0018
0018
0018
0018
0000
0000
0000
0000
0000
0000
0000
ENDCHAR
STARTCHAR U+F15B
ENCODING 61787
SWIDTH 960 0
DWIDTH 16 0
BBX 16 16 0 -2
BITMAP
0000
7FF8
0618
0618
0C18
0C18
1818
3030
0000
0000
0000
0000
0000
0000
0000
0000
ENDCHAR
STARTCHAR U+F15C
ENCODING 61788
SWIDTH 960 0
DWIDTH 16 0
BBX 16 16 0 -2
BITMAP
0000
6000
6000
6000
6000
6000
6000
3FF8
0000
0000
0000
0000
0000
0000
0000
0000
ENDCHAR
STARTCHAR U+F15D
ENCODING 61789
SWIDTH 960 0
DWIDTH 16 0
BBX 16 16 0 -2
BITMAP
0000
7FF8
6000
6000
6000
6000
6000
3FF8
0000
0000
0000
0000
0000
0000
0000
0000
ENDCHAR
STARTCHAR U+F15E
ENCODING 61790
SWIDTH 960 0
DWIDTH 16 0
BBX 16 16 0 -2
BITMAP
0000
7FF8
6180
6180
6180
6180
6180
3EF8
0000
0000
0000
0000
0000
0000
0000
0000
ENDCHAR
STARTCHAR U+F15F
ENCODING 61791
SWIDTH 960 0
DWIDTH 16 0
BBX 16 16 0 -2
BITMAP
0000
7FF8
0018
0018
7FF0
6000
6000
3FF8
0000
0000
0000
0000
0000
0000
0000
0000
ENDCHAR
STARTCHAR U+F160
ENCODING 61792
SWIDTH 960 0
DWIDTH 16 0
BBX 16 16 0 -2
BITMAP
0000
7FF8
6018
6018
6018
6018
6018
3FF8
0000
0000
0000
0000
0000
0000
0000
0000
ENDCHAR
STARTCHAR U+F161
ENCODING 61793
SWIDTH 960 0
DWIDTH 16 0
BBX 16 16 0 -2
BITMAP
0000
6018
6018
6018
7FF8
6018
6018
3FF8
0000
0000
0000
0000
0000
0000
0000
0000
ENDCHAR
STARTCHAR U+F162
ENCODING 61794
SWIDTH 960 0
DWIDTH 16 0
BBX 16 16 0 -2
BITMAP
0000
6318
6318
6318
7FF8
6318
6318
3FF8
0000
0000
0000
0000
0000
0000
0000
0000
ENDCHAR
STARTCHAR U+F163
ENCODING 61795
SWIDTH 960 0
DWIDTH 16 0
BBX 16 16 0 -2
BITMAP
0000
0300
0300
0300
0780
0CC0
1860
7038
0000
0000
0000
0000
0000
0000
0000
0000
ENDCHAR
STARTCHAR U+F164
ENCODING 61796
SWIDTH 960 0
DWIDTH 16 0
BBX 16 16 0 -2
BITMAP
0000
1860
1860
1860
1860
3CF0
6798
C30C
0000
0000
0000
0000
0000
0000
0000
0000
ENDCHAR
STARTCHAR U+F165
ENCODING 61797
SWIDTH 960 0
DWIDTH 16 0
BBX 16 16 0 -2
BITMAP
0000
1FE0
3030
6018
6018
6018
3030
1FE0
0000
0000
0000
0000
0000
0000
0000
0000
ENDCHAR
STARTCHAR U+F166
ENCODING 61798
SWIDTH 960 0
DWIDTH 16 0
BBX 16 16 0 -2
BITMAP
0000
7FF8
0300
0300
0780
0CC0
1860
7038
0000
0000
0000
0000
0000
0000
0000
0000
ENDCHAR
STARTCHAR U+F167
ENCODING 61799
SWIDTH 960 0
DWIDTH 16 0
BBX 16 16 0 -2
BITMAP
0000
7FF8
1860
1860
1860
3CF0
6798
C30C
0000
0000
0000
0000
0000
0000
0000
0000
ENDCHAR
STARTCHAR U+F168
ENCODING 61800
SWIDTH 960 0
DWIDTH 16 0
BBX 16 16 0 -2
BITMAP
0000
0FC0
0000
7FF8
0300
0780
1CE0
7038
0000
0000
0000
0000
0000
0000
0000
0000
ENDCHAR
STARTCHAR U+F169
ENCODING 61801
SWIDTH 960 0
DWIDTH 16 0
BBX 16 16 0 -2
BITMAP
0000
7FF8
0018
0018
7FF8
0018
0018
0018
0018
0000
0000
0000
0000
0000
0000
0000
ENDCHAR
STARTCHAR U+F16A
ENCODING 61802
SWIDTH 960 0
DWIDTH 16 0
BBX 16 16 0 -2
BITMAP
0000
7FF8
6000
6000
7FF0
6000
6000
3FF8
0000
0000
0000
0000
0000
0000
0000
0000
ENDCHAR
STARTCHAR U+F16B
ENCODING 61803
SWIDTH 960 0
DWIDTH 16 0
BBX 16 16 0 -2
BITMAP
0000
7FF8
0000
1860
1860
1860
1860
7FF8
0000
0000
0000
0000
0000
0000
0000
0000
ENDCHAR
STARTCHAR U+F16C
ENCODING 61804
SWIDTH 960 0
DWIDTH 16 0
BBX 16 16 0 -2
BITMAP
0000
0FC0
0000
7FF8
0000
1FE0
3030
3030
1FE0
0000
0000
0000
0000
0000
0000
0000
ENDCHAR
STARTCHAR U+F16D
ENCODING 61805
SWIDTH 960 0
DWIDTH 16 0
BBX 16 16 0 -2
BITMAP
FF00
0300
0300
0600
0600
1C00
F000
0000
0000
0000
0000
0000
0000
0000
0000
0000
ENDCHAR
STARTCHAR U+F16E
ENCODING 61806
SWIDTH 960 0
DWIDTH 16 0
BBX 16 16 0 -2
BITMAP
FF00
1B00
1B00
3600
3600
6C00
D800
0000
0000
0000
0000
0000
0000
0000
0000
0000
ENDCHAR
STARTCHAR U+F16F
ENCODING 61807
SWIDTH 960 0
DWIDTH 16 0
BBX 16 16 0 -2
BITMAP
C000
C000
C000
C000
C000
C000
7F00
0000
0000
0000
0000
0000
0000
0000
0000
0000
ENDCHAR
STARTCHAR U+F170
ENCODING 61808
SWIDTH 960 0
DWIDTH 16 0
BBX 16 16 0 -2
BITMAP
FF00
C000
C000
C000
C000
C000
7F00
0000
0000
0000
0000
0000
0000
0000
0000
0000
ENDCHAR
STARTCHAR U+F171
ENCODING 61809
SWIDTH 960 0
DWIDTH 16 0
BBX 16 16 0 -2
BITMAP
FF00
CC00
CC00
CC00
CC00
CC00
7700
0000
0000
0000
0000
0000
0000
0000
0000
0000
ENDCHAR
STARTCHAR U+F172
ENCODING 61810
SWIDTH 960 0
DWIDTH 16 0
BBX 16 16 0 -2
BITMAP
FF00
0300
0300
FE00
C000
C000
7F00
0000
0000
0000
0000
0000
0000
0000
0000
0000
ENDCHAR
STARTCHAR U+F173
ENCODING 61811
SWIDTH 960 0
DWIDTH 16 0
BBX 16 16 0 -2
BITMAP
FF00
C300
C300
C300
C300
C300
7F00
0000
0000
0000
0000
0000
0000
0000
0000
0000
ENDCHAR
STARTCHAR U+F174
ENCODING 61812
SWIDTH 960 0
DWIDTH 16 0
BBX 16 16 0 -2
BITMAP
C300
C300
C300
FF00
C300
C300
7F00
0000
0000
0000
0000
0000
0000
0000
0000
0000
ENDCHAR
STARTCHAR U+F175
ENCODING 61813
SWIDTH 960 0
DWIDTH 16 0
BBX 16 16 0 -2
BITMAP
DB00
DB00
DB00
FF00
DB00
DB00
7F00
0000
0000
0000
0000
0000
0000
0000
0000
0000
ENDCHAR
STARTCHAR U+F176
ENCODING 61814
SWIDTH 960 0
DWIDTH 16 0
BBX 16 16 0 -2
BITMAP
1800
1800
1800
1800
3C00
6600
C300
0000
0000
0000
0000
0000
0000
0000
0000
0000
ENDCHAR
STARTCHAR U+F177
ENCODING 61815
SWIDTH 960 0
DWIDTH 16 0
BBX 16 16 0 -2
BITMAP
6600
6600
6600
6600
FF00
DB00
DB00
0000
0000
0000
0000
0000
0000
0000
0000
0000
ENDCHAR
STARTCHAR U+F178
ENCODING 61816
SWIDTH 960 0
DWIDTH 16 0
BBX 16 16 0 -2
BITMAP
3C00
6600
C300
C300
C300
6600
3C00
0000
0000
0000
0000
0000
0000
0000
0000
0000
ENDCHAR
STARTCHAR U+F179
ENCODING 61817
SWIDTH 960 0
DWIDTH 16 0
BBX 16 16 0 -2
BITMAP
FF00
1800
1800
1800
3C00
6600
C300
0000
0000
0000
0000
0000
0000
0000
0000
0000
ENDCHAR
STARTCHAR U+F17A
ENCODING 61818
SWIDTH 960 0
DWIDTH 16 0
BBX 16 16 0 -2
BITMAP
FF00
6600
6600
6600
FF00
DB00
DB00
0000
0000
0000
0000
0000
0000
0000
0000
0000
ENDCHAR
STARTCHAR U+F17B
ENCODING 61819
SWIDTH 960 0
DWIDTH 16 0
BBX 16 16 0 -2
BITMAP
1800
FF00
1800
1800
3C00
6600
C300
0000
0000
0000
0000
0000
0000
0000
0000
0000
ENDCHAR
STARTCHAR U+F17C
ENCODING 61820
SWIDTH 960 0
DWIDTH 16 0
BBX 16 16 0 -2
BITMAP
FF00
0300
0300
FE00
0600
1C00
F000
0000
0000
0000
0000
0000
0000
0000
0000
0000
ENDCHAR
STARTCHAR U+F17D
ENCODING 61821
SWIDTH 960 0
DWIDTH 16 0
BBX 16 16 0 -2
BITMAP
FF00
C000
C000
FC00
C000
C000
7F00
0000
0000
0000
0000
0000
0000
0000
0000
0000
ENDCHAR
STARTCHAR U+F17E
ENCODING 61822
SWIDTH 960 0
DWIDTH 16 0
BBX 16 16 0 -2
BITMAP
FF00
0000
6600
6600
6600
6600
FF00
0000
0000
0000
0000
0000
0000
0000
0000
0000
ENDCHAR
STARTCHAR U+F17F
ENCODING 61823
SWIDTH 960 0
DWIDTH 16 0
BBX 16 16 0 -2
BITMAP
1800
FF00
0000
3C00
6600
6600
6600
3C00
0000
0000
0000
0000
0000
0000
0000
0000
ENDCHAR
STARTCHAR U+F180
ENCODING 61824
SWIDTH 960 0
DWIDTH 16 0
BBX 16 16 0 -2
BITMAP
FF00
0300
0300
0300
0300
0300
0000
0000
0000
0000
0000
0000
0000
0000
0000
0000
ENDCHAR
STARTCHAR U+F181
ENCODING 61825
SWIDTH 960 0
DWIDTH 16 0
BBX 16 16 0 -2
BITMAP
FF00
3300
3300
3300
6600
0000
0000
0000
0000
0000
0000
0000
0000
0000
0000
0000
ENDCHAR
STARTCHAR U+F182
ENCODING 61826
SWIDTH 960 0
DWIDTH 16 0
BBX 16 16 0 -2
BITMAP
C000
C000
C000
C000
7F00
0000
0000
0000
0000
0000
0000
0000
0000
0000
0000
0000
ENDCHAR
STARTCHAR U+F183
ENCODING 61827
SWIDTH 960 0
DWIDTH 16 0
BBX 16 16 0 -2
BITMAP
FF00
C000
C000
C000
7F00
0000
0000
0000
0000
0000
0000
0000
0000
0000
0000
0000
ENDCHAR
STARTCHAR U+F184
ENCODING 61828
SWIDTH 960 0
DWIDTH 16 0
BBX 16 16 0 -2
BITMAP
FF00
CC00
CC00
CC00
7700
0000
0000
0000
0000
0000
0000
0000
0000
0000
0000
0000
ENDCHAR
STARTCHAR U+F185
ENCODING 61829
SWIDTH 960 0
DWIDTH 16 0
BBX 16 16 0 -2
BITMAP
FF00
0300
FE00
C000
7F00
0000
0000
0000
0000
0000
0000
0000
0000
0000
0000
0000
ENDCHAR
STARTCHAR U+F186
ENCODING 61830
SWIDTH 960 0
DWIDTH 16 0
BBX 16 16 0 -2
BITMAP
FF00
C300
C300
C300
7F00
0000
0000
0000
0000
0000
0000
0000
0000
0000
0000
0000
ENDCHAR
STARTCHAR U+F187
ENCODING 61831
SWIDTH 960 0
DWIDTH 16 0
BBX 16 16 0 -2
BITMAP
C300
C300
FF00
C300
7F00
0000
0000
0000
0000
0000
0000
0000
0000
0000
0000
0000
ENDCHAR
STARTCHAR U+F188
ENCODING 61832
SWIDTH 960 0
DWIDTH 16 0
BBX 16 16 0 -2
BITMAP
DB00
DB00
FF00
DB00
7F00
0000
0000
0000
0000
0000
0000
0000
0000
0000
0000
0000
ENDCHAR
STARTCHAR U+F189
ENCODING 61833
SWIDTH 960 0
DWIDTH 16 0
BBX 16 16 0 -2
BITMAP
1800
1800
3C00
6600
C300
0000
0000
0000
0000
0000
0000
0000
0000
0000
0000
0000
ENDCHAR
STARTCHAR U+F18A
ENCODING 61834
SWIDTH 960 0
DWIDTH 16 0
BBX 16 16 0 -2
BITMAP
6600
6600
6600
FF00
DB00
0000
0000
0000
0000
0000
0000
0000
0000
0000
0000
0000
ENDCHAR
STARTCHAR U+F18B
ENCODING 61835
SWIDTH 960 0
DWIDTH 16 0
BBX 16 16 0 -2
BITMAP
7E00
C300
C300
C300
7E00
0000
0000
0000
0000
0000
0000
0000
0000
0000
0000
0000
ENDCHAR
STARTCHAR U+F18C
ENCODING 61836
SWIDTH 960 0
DWIDTH 16 0
BBX 16 16 0 -2
BITMAP
FF00
1800
3C00
6600
C300
0000
0000
0000
0000
0000
0000
0000
0000
0000
0000
0000
ENDCHAR
STARTCHAR U+F18D
ENCODING 61837
SWIDTH 960 0
DWIDTH 16 0
BBX 16 16 0 -2
BITMAP
FF00
6600
6600
FF00
DB00
0000
0000
0000
0000
0000
0000
0000
0000
0000
0000
0000
ENDCHAR
STARTCHAR U+F18E
ENCODING 61838
SWIDTH 960 0
DWIDTH 16 0
BBX 16 16 0 -2
BITMAP
1800
FF00
3C00
6600
C300
0000
0000
0000
0000
0000
0000
0000
0000
0000
0000
0000
ENDCHAR
STARTCHAR U+F18F
ENCODING 61839
SWIDTH 960 0
DWIDTH 16 0
BBX 16 16 0 -2
BITMAP
FF00
0300
0300
FF00
0300
0300
0000
0000
0000
0000
0000
0000
0000
0000
0000
0000
ENDCHAR
STARTCHAR U+F190
ENCODING 61840
SWIDTH 960 0
DWIDTH 16 0
BBX 16 16 0 -2
BITMAP
FF00
C000
FE00
C000
7F00
0000
0000
0000
0000
0000
0000
0000
0000
0000
0000
0000
ENDCHAR
STARTCHAR U+F191
ENCODING 61841
SWIDTH 960 0
DWIDTH 16 0
BBX 16 16 0 -2
BITMAP
FF00
6600
6600
6600
FF00
0000
0000
0000
0000
0000
0000
0000
0000
0000
0000
0000
ENDCHAR
STARTCHAR U+F192
ENCODING 61842
SWIDTH 960 0
DWIDTH 16 0
BBX 16 16 0 -2
BITMAP
1800
FF00
6600
6600
3C00
0000
0000
0000
0000
0000
0000
0000
0000
0000
0000
0000
ENDCHAR
STARTCHAR U+F193
ENCODING 61843
SWIDTH 960 0
DWIDTH 16 0
BBX 16 16 0 -2
BITMAP
7FF8
0018
0018
0018
0018
0018
0000
0000
0000
0000
0000
0000
0000
0000
0000
0000
ENDCHAR
STARTCHAR U+F194
ENCODING 61844
SWIDTH 960 0
DWIDTH 16 0
BBX 16 16 0 -2
BITMAP
7FF8
0618
0618
0C18
1830
0000
0000
0000
0000
0000
0000
0000
0000
0000
0000
0000
ENDCHAR
STARTCHAR U+F195
ENCODING 61845
SWIDTH 960 0
DWIDTH 16 0
BBX 16 16 0 -2
BITMAP
6000
6000
6000
6000
3FF8
0000
0000
0000
0000
0000
0000
0000
0000
0000
0000
0000
ENDCHAR
STARTCHAR U+F196
ENCODING 61846
SWIDTH 960 0
DWIDTH 16 0
BBX 16 16 0 -2
BITMAP
7FF8
6000
6000
6000
3FF8
0000
0000
0000
0000
0000
0000
0000
0000
0000
0000
0000
ENDCHAR
STARTCHAR U+F197
ENCODING 61847
SWIDTH 960 0
DWIDTH 16 0
BBX 16 16 0 -2
BITMAP
7FF8
6180
6180
6180
3EF8
0000
0000
0000
0000
0000
0000
0000
0000
0000
0000
0000
ENDCHAR
STARTCHAR U+F198
ENCODING 61848
SWIDTH 960 0
DWIDTH 16 0
BBX 16 16 0 -2
BITMAP
7FF8
0018
7FF0
6000
3FF8
0000
0000
0000
0000
0000
0000
0000
0000
0000
0000
0000
ENDCHAR
STARTCHAR U+F199
ENCODING 61849
SWIDTH 960 0
DWIDTH 16 0
BBX 16 16 0 -2
BITMAP
7FF8
6018
6018
6018
3FF8
0000
0000
0000
0000
0000
0000
0000
0000
0000
0000
0000
ENDCHAR
STARTCHAR U+F19A
ENCODING 61850
SWIDTH 960 0
DWIDTH 16 0
BBX 16 16 0 -2
BITMAP
6018
6018
7FF8
6018
3FF8
0000
0000
0000
0000
0000
0000
0000
0000
0000
0000
0000
ENDCHAR
STARTCHAR U+F19B
ENCODING 61851
SWIDTH 960 0
DWIDTH 16 0
BBX 16 16 0 -2
BITMAP
6318
6318
7FF8
6318
3FF8
0000
0000
0000
0000
0000
0000
0000
0000
0000
0000
0000
ENDCHAR
STARTCHAR U+F19C
ENCODING 61852
SWIDTH 960 0
DWIDTH 16 0
BBX 16 16 0 -2
BITMAP
0300
0300
0780
1CE0
7038
0000
0000
0000
0000
0000
0000
0000
0000
0000
0000
0000
ENDCHAR
STARTCHAR U+F19D
ENCODING 61853
SWIDTH 960 0
DWIDTH 16 0
BBX 16 16 0 -2
BITMAP
1860
1860
3CF0
6798
C30C
0000
0000
0000
0000
0000
0000
0000
0000
0000
0000
0000
ENDCHAR
STARTCHAR U+F19E
ENCODING 61854
SWIDTH 960 0
DWIDTH 16 0
BBX 16 16 0 -2
BITMAP
3FF0
6018
6018
6018
3FF0
0000
0000
0000
0000
0000
0000
0000
0000
0000
0000
0000
ENDCHAR
STARTCHAR U+F19F
ENCODING 61855
SWIDTH 960 0
DWIDTH 16 0
BBX 16 16 0 -2
BITMAP
7FF8
0300
0780
1CE0
7038
0000
0000
0000
0000
0000
0000
0000
0000
0000
0000
0000
ENDCHAR
STARTCHAR U+F1A0
ENCODING 61856
SWIDTH 960 0
DWIDTH 16 0
BBX 16 16 0 -2
BITMAP
7FF8
1860
3CF0
6798
C30C
0000
0000
0000
0000
0000
0000
0000
0000
0000
0000
0000
ENDCHAR
STARTCHAR U+F1A1
ENCODING 61857
SWIDTH 960 0
DWIDTH 16 0
BBX 16 16 0 -2
BITMAP
0300
7FF8
0780
1CE0
7038
0000
0000
0000
0000
0000
0000
0000
0000
0000
0000
0000
ENDCHAR
STARTCHAR U+F1A2
ENCODING 61858
SWIDTH 960 0
DWIDTH 16 0
BBX 16 16 0 -2
BITMAP
7FF8
0018
0018
7FF8
0018
0018
0000
0000
0000
0000
0000
0000
0000
0000
0000
0000
ENDCHAR
STARTCHAR U+F1A3
ENCODING 61859
SWIDTH 960 0
DWIDTH 16 0
BBX 16 16 0 -2
BITMAP
7FF8
6000
7FF0
6000
3FF8
0000
0000
0000
0000
0000
0000
0000
0000
0000
0000
0000
ENDCHAR
STARTCHAR U+F1A4
ENCODING 61860
SWIDTH 960 0
DWIDTH 16 0
BBX 16 16 0 -2
BITMAP
7FF8
1860
1860
1860
7FF8
0000
0000
0000
0000
0000
0000
0000
0000
0000
0000
0000
ENDCHAR
STARTCHAR U+F1A5
ENCODING 61861
SWIDTH 960 0
DWIDTH 16 0
BBX 16 16 0 -2
BITMAP
0300
7FF8
1860
3030
1FE0
0000
0000
0000
0000
0000
0000
0000
0000
0000
0000
0000
ENDCHAR
STARTCHAR U+F1A6
ENCODING 61862
SWIDTH 960 0
DWIDTH 16 0
BBX 16 16 0 -2
BITMAP
0018
0018
0018
0018
0018
001E
0018
0018
0018
0018
0018
0018
0018
0018
0000
0000
ENDCHAR
STARTCHAR U+F1A7
ENCODING 61863
SWIDTH 960 0
DWIDTH 16 0
BBX 16 16 0 -2
BITMAP
006C
006C
006C
006C
006C
007C
006C
006C
006C
006C
006C
006C
006C
006C
0000
0000
ENDCHAR
STARTCHAR U+F1A8
ENCODING 61864
SWIDTH 960 0
DWIDTH 16 0
BBX 16 16 0 -2
BITMAP
0018
0018
0018
0018
001E
0018
0018
001E
0018
0018
0018
0018
0018
0018
0000
0000
ENDCHAR
STARTCHAR U+F1A9
ENCODING 61865
SWIDTH 960 0
DWIDTH 16 0
BBX 16 16 0 -2
BITMAP
006C
006C
006C
006C
007C
006C
006C
007C
006C
006C
006C
006C
006C
006C
0000
0000
ENDCHAR
STARTCHAR U+F1AA
ENCODING 61866
SWIDTH 960 0
DWIDTH 16 0
BBX 16 16 0 -2
BITMAP
0018
0018
0018
0018
0018
00F8
0018
0018
0018
0018
0018
0018
0018
0018
0000
0000
ENDCHAR
STARTCHAR U+F1AB
ENCODING 61867
SWIDTH 960 0
DWIDTH 16 0
BBX 16 16 0 -2
BITMAP
006C
006C
006C
006C
006C
01EC
006C
006C
006C
006C
006C
006C
006C
006C
0000
0000
ENDCHAR
STARTCHAR U+F1AC
ENCODING 61868
SWIDTH 960 0
DWIDTH 16 0
BBX 16 16 0 -2
BITMAP
0018
0018
0018
0018
00F8
0018
0018
00F8
0018
0018
0018
0018
0018
0018
0000
0000
ENDCHAR
STARTCHAR U+F1AD
ENCODING 61869
SWIDTH 960 0
DWIDTH 16 0
BBX 16 16 0 -2
BITMAP
006C
006C
006C
006C
01EC
006C
006C
01EC
006C
006C
006C
006C
006C
006C
0000
0000
ENDCHAR
STARTCHAR U+F1AE
ENCODING 61870
SWIDTH 960 0
DWIDTH 16 0
BBX 16 16 0 -2
BITMAP
0000
0000
0000
0000
0000
0000
0000
0000
0300
0300
0300
FFFC
0000
0000
0000
0000
ENDCHAR
STARTCHAR U+F1AF
ENCODING 61871
SWIDTH 960 0
DWIDTH 16 0
BBX 16 16 0 -2
BITMAP
0018
0018
0018
0018
0018
001E
0018
0018
1818
1818
1818
FFD8
0018
0018
0000
0000
ENDCHAR
STARTCHAR U+F1B0
ENCODING 61872
SWIDTH 960 0
DWIDTH 16 0
BBX 16 16 0 -2
BITMAP
006C
006C
006C
006C
006C
007C
006C
006C
186C
186C
186C
FF6C
006C
006C
0000
0000
ENDCHAR
STARTCHAR U+F1B1
ENCODING 61873
SWIDTH 960 0
DWIDTH 16 0
BBX 16 16 0 -2
BITMAP
0018
0018
0018
0018
0018
0018
0018
0018
1818
1818
1818
FFD8
0018
0018
0000
0000
ENDCHAR
STARTCHAR U+F1B2
ENCODING 61874
SWIDTH 960 0
DWIDTH 16 0
BBX 16 16 0 -2
BITMAP
0000
0000
0000
0000
0000
0000
0000
0000
0CC0
0CC0
0CC0
FFFC
0000
0000
0000
0000
ENDCHAR
STARTCHAR U+F1B3
ENCODING 61875
SWIDTH 960 0
DWIDTH 16 0
BBX 16 16 0 -2
BITMAP
0000
0000
0000
0000
0000
0000
0000
FFFC
0300
0300
0300
0300
0300
0300
0000
0000
ENDCHAR
STARTCHAR U+F1B4
ENCODING 61876
SWIDTH 960 0
DWIDTH 16 0
BBX 16 16 0 -2
BITMAP
0018
0018
0018
0018
0018
0018
0018
FFD8
1818
1818
18F8
1818
1818
1818
0000
0000
ENDCHAR
STARTCHAR U+F1B5
ENCODING 61877
SWIDTH 960 0
DWIDTH 16 0
BBX 16 16 0 -2
BITMAP
006C
006C
006C
006C
006C
006C
006C
FF6C
186C
186C
1BEC
186C
186C
186C
0000
0000
ENDCHAR
STARTCHAR U+F1B6
ENCODING 61878
SWIDTH 960 0
DWIDTH 16 0
BBX 16 16 0 -2
BITMAP
0018
0018
0018
0018
0018
0018
0018
FFD8
1818
1818
1818
1818
1818
1818
0000
0000
ENDCHAR
STARTCHAR U+F1B7
ENCODING 61879
SWIDTH 960 0
DWIDTH 16 0
BBX 16 16 0 -2
BITMAP
0000
0000
0000
0000
0000
0000
0000
FFFC
1860
1860
1860
1860
1860
1860
0000
0000
ENDCHAR
STARTCHAR U+F1B8
ENCODING 61880
SWIDTH 960 0
DWIDTH 16 0
BBX 16 16 0 -2
BITMAP
0000
0000
0000
0000
0000
0000
0000
0000
0000
0000
0000
FFFC
0000
0000
0000
0000
ENDCHAR
STARTCHAR U+F1B9
ENCODING 61881
SWIDTH 960 0
DWIDTH 16 0
BBX 16 16 0 -2
BITMAP
0018
0018
0018
0018
0018
0018
0018
0018
0018
0018
0018
FFD8
0018
0018
0000
0000
ENDCHAR
STARTCHAR U+F1BA
ENCODING 61882
SWIDTH 960 0
DWIDTH 16 0
BBX 16 16 0 -2
BITMAP
0018
0018
0018
0018
0018
0018
0018
0018
0018
0018
0018
0018
0018
0018
0000
0000
ENDCHAR
STARTCHAR U+F1BB
ENCODING 61883
SWIDTH 960 0
DWIDTH 16 0
BBX 16 16 0 -2
BITMAP
0018
0018
0018
001E
0018
0018
0018
0018
0018
0018
0000
0000
0000
0000
0000
0000
ENDCHAR
STARTCHAR U+F1BC
ENCODING 61884
SWIDTH 960 0
DWIDTH 16 0
BBX 16 16 0 -2
BITMAP
006C
006C
006C
007C
006C
006C
006C
006C
006C
006C
0000
0000
0000
0000
0000
0000
ENDCHAR
STARTCHAR U+F1BD
ENCODING 61885
SWIDTH 960 0
DWIDTH 16 0
BBX 16 16 0 -2
BITMAP
0018
0018
001E
0018
0018
001E
0018
0018
0018
0018
0000
0000
0000
0000
0000
0000
ENDCHAR
STARTCHAR U+F1BE
ENCODING 61886
SWIDTH 960 0
DWIDTH 16 0
BBX 16 16 0 -2
BITMAP
006C
006C
007C
006C
006C
007C
006C
006C
006C
006C
0000
0000
0000
0000
0000
0000
ENDCHAR
STARTCHAR U+F1BF
ENCODING 61887
SWIDTH 960 0
DWIDTH 16 0
BBX 16 16 0 -2
BITMAP
0018
0018
0018
00F8
0018
0018
0018
0018
0018
0018
0000
0000
0000
0000
0000
0000
ENDCHAR
STARTCHAR U+F1C0
ENCODING 61888
SWIDTH 960 0
DWIDTH 16 0
BBX 16 16 0 -2
BITMAP
006C
006C
006C
01EC
006C
006C
006C
006C
006C
006C
0000
0000
0000
0000
0000
0000
ENDCHAR
STARTCHAR U+F1C1
ENCODING 61889
SWIDTH 960 0
DWIDTH 16 0
BBX 16 16 0 -2
BITMAP
0018
0018
00F8
0018
0018
00F8
0018
0018
0018
0018
0000
0000
0000
0000
0000
0000
ENDCHAR
STARTCHAR U+F1C2
ENCODING 61890
SWIDTH 960 0
DWIDTH 16 0
BBX 16 16 0 -2
BITMAP
006C
006C
01EC
006C
006C
01EC
006C
006C
006C
006C
0000
0000
0000
0000
0000
0000
ENDCHAR
STARTCHAR U+F1C3
ENCODING 61891
SWIDTH 960 0
DWIDTH 16 0
BBX 16 16 0 -2
BITMAP
0000
0000
0000
0000
0000
0300
0300
FFFC
0000
0000
0000
0000
0000
0000
0000
0000
ENDCHAR
STARTCHAR U+F1C4
ENCODING 61892
SWIDTH 960 0
DWIDTH 16 0
BBX 16 16 0 -2
BITMAP
0018
0018
0018
001E
0018
1818
1818
FFD8
0018
0018
0000
0000
0000
0000
0000
0000
ENDCHAR
STARTCHAR U+F1C5
ENCODING 61893
SWIDTH 960 0
DWIDTH 16 0
BBX 16 16 0 -2
BITMAP
006C
006C
006C
007C
006C
186C
186C
FF6C
006C
006C
0000
0000
0000
0000
0000
0000
ENDCHAR
STARTCHAR U+F1C6
ENCODING 61894
SWIDTH 960 0
DWIDTH 16 0
BBX 16 16 0 -2
BITMAP
0018
0018
0018
0018
0018
1818
1818
FFD8
0018
0018
0000
0000
0000
0000
0000
0000
ENDCHAR
STARTCHAR U+F1C7
ENCODING 61895
SWIDTH 960 0
DWIDTH 16 0
BBX 16 16 0 -2
BITMAP
0000
0000
0000
0000
0000
0CC0
0CC0
FFFC
0000
0000
0000
0000
0000
0000
0000
0000
ENDCHAR
STARTCHAR U+F1C8
ENCODING 61896
SWIDTH 960 0
DWIDTH 16 0
BBX 16 16 0 -2
BITMAP
0000
0000
0000
0000
0000
0000
0000
FFFC
0300
0300
0300
0000
0000
0000
0000
0000
ENDCHAR
STARTCHAR U+F1C9
ENCODING 61897
SWIDTH 960 0
DWIDTH 16 0
BBX 16 16 0 -2
BITMAP
0018
0018
0018
0018
0018
0018
FFD8
1818
18F8
0018
0000
0000
0000
0000
0000
0000
ENDCHAR
STARTCHAR U+F1CA
ENCODING 61898
SWIDTH 960 0
DWIDTH 16 0
BBX 16 16 0 -2
BITMAP
006C
006C
006C
006C
006C
006C
FF6C
186C
19EC
006C
0000
0000
0000
0000
0000
0000
ENDCHAR
STARTCHAR U+F1CB
ENCODING 61899
SWIDTH 960 0
DWIDTH 16 0
BBX 16 16 0 -2
BITMAP
0018
0018
0018
0018
0018
0018
FFD8
1818
1818
0018
0000
0000
0000
0000
0000
0000
ENDCHAR
STARTCHAR U+F1CC
ENCODING 61900
SWIDTH 960 0
DWIDTH 16 0
BBX 16 16 0 -2
BITMAP
0000
0000
0000
0000
0000
0000
0000
FFFC
0CC0
0CC0
0CC0
0000
0000
0000
0000
0000
ENDCHAR
STARTCHAR U+F1CD
ENCODING 61901
SWIDTH 960 0
DWIDTH 16 0
BBX 16 16 0 -2
BITMAP
0000
0000
0000
0000
0000
0000
0000
FFFC
0000
0000
0000
0000
0000
0000
0000
0000
ENDCHAR
STARTCHAR U+F1CE
ENCODING 61902
SWIDTH 960 0
DWIDTH 16 0
BBX 16 16 0 -2
BITMAP
0018
0018
0018
0018
0018
0018
0018
FFD8
0018
0018
0000
0000
0000
0000
0000
0000
ENDCHAR
STARTCHAR U+F1CF
ENCODING 61903
SWIDTH 960 0
DWIDTH 16 0
BBX 16 16 0 -2
BITMAP
0018
0018
0018
0018
0018
0018
0018
0018
0018
0018
0000
0000
0000
0000
0000
0000
ENDCHAR
STARTCHAR U+F1D0
ENCODING 61904
SWIDTH 960 0
DWIDTH 16 0
BBX 16 16 0 -2
BITMAP
0018
0018
0018
001E
0018
0018
0018
0018
0000
0000
0000
0000
0000
0000
0000
0000
ENDCHAR
STARTCHAR U+F1D1
ENCODING 61905
SWIDTH 960 0
DWIDTH 16 0
BBX 16 16 0 -2
BITMAP
006C
006C
006C
007C
006C
006C
006C
006C
0000
0000
0000
0000
0000
0000
0000
0000
ENDCHAR
STARTCHAR U+F1D2
ENCODING 61906
SWIDTH 960 0
DWIDTH 16 0
BBX 16 16 0 -2
BITMAP
0018
0018
001E
0018
0018
001E
0018
0018
0000
0000
0000
0000
0000
0000
0000
0000
ENDCHAR
STARTCHAR U+F1D3
ENCODING 61907
SWIDTH 960 0
DWIDTH 16 0
BBX 16 16 0 -2
BITMAP
006C
006C
007C
006C
006C
007C
006C
006C
0000
0000
0000
0000
0000
0000
0000
0000
ENDCHAR
STARTCHAR U+F1D4
ENCODING 61908
SWIDTH 960 0
DWIDTH 16 0
BBX 16 16 0 -2
BITMAP
0018
0018
0018
00F8
0018
0018
0018
0018
0000
0000
0000
0000
0000
0000
0000
0000
ENDCHAR
STARTCHAR U+F1D5
ENCODING 61909
SWIDTH 960 0
DWIDTH 16 0
BBX 16 16 0 -2
BITMAP
006C
006C
006C
01EC
006C
006C
006C
006C
0000
0000
0000
0000
0000
0000
0000
0000
ENDCHAR
STARTCHAR U+F1D6
ENCODING 61910
SWIDTH 960 0
DWIDTH 16 0
BBX 16 16 0 -2
BITMAP
0018
0018
00F8
0018
0018
00F8
0018
0018
0000
0000
0000
0000
0000
0000
0000
0000
ENDCHAR
STARTCHAR U+F1D7
ENCODING 61911
SWIDTH 960 0
DWIDTH 16 0
BBX 16 16 0 -2
BITMAP
006C
006C
01EC
006C
006C
01EC
006C
006C
0000
0000
0000
0000
0000
0000
0000
0000
ENDCHAR
STARTCHAR U+F1D8
ENCODING 61912
SWIDTH 960 0
DWIDTH 16 0
BBX 16 16 0 -2
BITMAP
0000
0000
0000
0000
0000
0300
0300
FFFC
0000
0000
0000
0000
0000
0000
0000
0000
ENDCHAR
STARTCHAR U+F1D9
ENCODING 61913
SWIDTH 960 0
DWIDTH 16 0
BBX 16 16 0 -2
BITMAP
0018
0018
0018
001E
0018
1818
1818
FFD8
0000
0000
0000
0000
0000
0000
0000
0000
ENDCHAR
STARTCHAR U+F1DA
ENCODING 61914
SWIDTH 960 0
DWIDTH 16 0
BBX 16 16 0 -2
BITMAP
006C
006C
006C
007C
006C
186C
186C
FF6C
0000
0000
0000
0000
0000
0000
0000
0000
ENDCHAR
STARTCHAR U+F1DB
ENCODING 61915
SWIDTH 960 0
DWIDTH 16 0
BBX 16 16 0 -2
BITMAP
0018
0018
0018
0018
0018
1818
1818
FFD8
0000
0000
0000
0000
0000
0000
0000
0000
ENDCHAR
STARTCHAR U+F1DC
ENCODING 61916
SWIDTH 960 0
DWIDTH 16 0
BBX 16 16 0 -2
BITMAP
0000
0000
0000
0000
0000
0CC0
0CC0
FFFC
0000
0000
0000
0000
0000
0000
0000
0000
ENDCHAR
STARTCHAR U+F1DD
ENCODING 61917
SWIDTH 960 0
DWIDTH 16 0
BBX 16 16 0 -2
BITMAP
0000
0000
0000
0000
0000
0000
FFFC
0300
0300
0000
0000
0000
0000
0000
0000
0000
ENDCHAR
STARTCHAR U+F1DE
ENCODING 61918
SWIDTH 960 0
DWIDTH 16 0
BBX 16 16 0 -2
BITMAP
0018
0018
0018
00F8
0018
0018
FFD8
1818
1800
0000
0000
0000
0000
0000
0000
0000
ENDCHAR
STARTCHAR U+F1DF
ENCODING 61919
SWIDTH 960 0
DWIDTH 16 0
BBX 16 16 0 -2
BITMAP
006C
006C
006C
01EC
006C
006C
FF6C
186C
1800
0000
0000
0000
0000
0000
0000
0000
ENDCHAR
STARTCHAR U+F1E0
ENCODING 61920
SWIDTH 960 0
DWIDTH 16 0
BBX 16 16 0 -2
BITMAP
0018
0018
0018
0018
0018
0018
FFD8
1818
1800
0000
0000
0000
0000
0000
0000
0000
ENDCHAR
STARTCHAR U+F1E1
ENCODING 61921
SWIDTH 960 0
DWIDTH 16 0
BBX 16 16 0 -2
BITMAP
0000
0000
0000
0000
0000
0000
FFFC
0CC0
0CC0
0000
0000
0000
0000
0000
0000
0000
ENDCHAR
STARTCHAR U+F1E2
ENCODING 61922
SWIDTH 960 0
DWIDTH 16 0
BBX 16 16 0 -2
BITMAP
0000
0000
0000
0000
0000
0000
FFFC
0000
0000
0000
0000
0000
0000
0000
0000
0000
ENDCHAR
STARTCHAR U+F1E3
ENCODING 61923
SWIDTH 960 0
DWIDTH 16 0
BBX 16 16 0 -2
BITMAP
0018
0018
0018
0018
0018
0018
FFD8
0018
0000
0000
0000
0000
0000
0000
0000
0000
ENDCHAR
STARTCHAR U+F1E4
ENCODING 61924
SWIDTH 960 0
DWIDTH 16 0
BBX 16 16 0 -2
BITMAP
0018
0018
0018
0018
0018
0018
0018
0018
0000
0000
0000
0000
0000
0000
0000
0000
ENDCHAR
STARTCHAR U+F1E5
ENCODING 61925
SWIDTH 960 0
DWIDTH 16 0
BBX 16 16 0 -2
BITMAP
0000
0000
0000
0000
0000
0000
0000
0000
0000
7FF0
0018
0018
0018
0018
0000
0000
ENDCHAR
STARTCHAR U+F1E6
ENCODING 61926
SWIDTH 960 0
DWIDTH 16 0
BBX 16 16 0 -2
BITMAP
0000
0000
0000
0000
0000
0000
0000
0000
0000
7DF0
0618
0618
0618
0618
0000
0000
ENDCHAR
STARTCHAR U+F1E7
ENCODING 61927
SWIDTH 960 0
DWIDTH 16 0
BBX 16 16 0 -2
BITMAP
0000
0000
0000
0000
0000
0000
0000
0000
0000
7C60
0660
0660
06F0
079C
0000
0000
ENDCHAR
STARTCHAR U+F1E8
ENCODING 61928
SWIDTH 960 0
DWIDTH 16 0
BBX 16 16 0 -2
BITMAP
0000
0000
0000
0000
0000
0000
0000
0000
0000
6000
6000
6000
6000
3FF8
0000
0000
ENDCHAR
STARTCHAR U+F1E9
ENCODING 61929
SWIDTH 960 0
DWIDTH 16 0
BBX 16 16 0 -2
BITMAP
0000
0000
0000
0000
0000
0000
0000
0000
0000
61F8
6060
6060
60F0
3F9C
0000
0000
ENDCHAR
STARTCHAR U+F1EA
ENCODING 61930
SWIDTH 960 0
DWIDTH 16 0
BBX 16 16 0 -2
BITMAP
0000
0000
0000
0000
0000
0000
0000
0000
0000
60F0
6000
63FC
6198
3EF0
0000
0000
ENDCHAR
STARTCHAR U+F1EB
ENCODING 61931
SWIDTH 960 0
DWIDTH 16 0
BBX 16 16 0 -2
BITMAP
0000
0000
0000
0000
0000
0000
0000
0000
0000
7FF8
6000
6000
6000
3FF8
0000
0000
ENDCHAR
STARTCHAR U+F1EC
ENCODING 61932
SWIDTH 960 0
DWIDTH 16 0
BBX 16 16 0 -2
BITMAP
0000
0000
0000
0000
0000
0000
0000
0000
0000
7FF8
0018
7FF0
6000
3FF8
0000
0000
ENDCHAR
STARTCHAR U+F1ED
ENCODING 61933
SWIDTH 960 0
DWIDTH 16 0
BBX 16 16 0 -2
BITMAP
0000
0000
0000
0000
0000
0000
0000
0000
0000
7DF0
0618
7C18
6018
3E18
0000
0000
ENDCHAR
STARTCHAR U+F1EE
ENCODING 61934
SWIDTH 960 0
DWIDTH 16 0
BBX 16 16 0 -2
BITMAP
0000
0000
0000
0000
0000
0000
0000
0000
0000
7DF8
0798
7D98
6198
3EF8
0000
0000
ENDCHAR
STARTCHAR U+F1EF
ENCODING 61935
SWIDTH 960 0
DWIDTH 16 0
BBX 16 16 0 -2
BITMAP
0000
0000
0000
0000
0000
0000
0000
0000
0000
7D98
0798
7DF8
6198
3EF8
0000
0000
ENDCHAR
STARTCHAR U+F1F0
ENCODING 61936
SWIDTH 960 0
DWIDTH 16 0
BBX 16 16 0 -2
BITMAP
0000
0000
0000
0000
0000
0000
0000
0000
0000
7C60
0660
7C60
60F0
3F9C
0000
0000
ENDCHAR
STARTCHAR U+F1F1
ENCODING 61937
SWIDTH 960 0
DWIDTH 16 0
BBX 16 16 0 -2
BITMAP
0000
0000
0000
0000
0000
0000
0000
0000
0000
7DF8
0780
7DF8
6180
3EF8
0000
0000
ENDCHAR
STARTCHAR U+F1F2
ENCODING 61938
SWIDTH 960 0
DWIDTH 16 0
BBX 16 16 0 -2
BITMAP
0000
0000
0000
0000
0000
0000
0000
0000
0000
7DFC
06D8
7CD8
60D8
3FFC
0000
0000
ENDCHAR
STARTCHAR U+F1F3
ENCODING 61939
SWIDTH 960 0
DWIDTH 16 0
BBX 16 16 0 -2
BITMAP
0000
0000
0000
0000
0000
0000
0000
0000
0000
7CF0
0600
7FFC
6198
3EF0
0000
0000
ENDCHAR
STARTCHAR U+F1F4
ENCODING 61940
SWIDTH 960 0
DWIDTH 16 0
BBX 16 16 0 -2
BITMAP
0000
0000
0000
0000
0000
0000
0000
0000
0000
7FF8
6018
6018
6018
3FF8
0000
0000
ENDCHAR
STARTCHAR U+F1F5
ENCODING 61941
SWIDTH 960 0
DWIDTH 16 0
BBX 16 16 0 -2
BITMAP
0000
0000
0000
0000
0000
0000
0000
0000
0000
6018
6018
7FF8
6018
3FF8
0000
0000
ENDCHAR
STARTCHAR U+F1F6
ENCODING 61942
SWIDTH 960 0
DWIDTH 16 0
BBX 16 16 0 -2
BITMAP
0000
0000
0000
0000
0000
0000
0000
0000
0000
6660
6660
7E60
66F0
3F9C
0000
0000
ENDCHAR
STARTCHAR U+F1F7
ENCODING 61943
SWIDTH 960 0
DWIDTH 16 0
BBX 16 16 0 -2
BITMAP
0000
0000
0000
0000
0000
0000
0000
0000
0000
0300
0300
0780
1CE0
7038
0000
0000
ENDCHAR
STARTCHAR U+F1F8
ENCODING 61944
SWIDTH 960 0
DWIDTH 16 0
BBX 16 16 0 -2
BITMAP
0000
0000
0000
0000
0000
0000
0000
0000
0000
0000
1860
1860
3CF0
E79C
0000
0000
ENDCHAR
STARTCHAR U+F1F9
ENCODING 61945
SWIDTH 960 0
DWIDTH 16 0
BBX 16 16 0 -2
BITMAP
0000
0000
0000
0000
0000
0000
0000
0000
0000
3FF0
6018
6018
6018
3FF0
0000
0000
ENDCHAR
STARTCHAR U+F1FA
ENCODING 61946
SWIDTH 960 0
DWIDTH 16 0
BBX 16 16 0 -2
BITMAP
0000
0000
0000
0000
0000
0000
0000
0000
0000
7FF8
0300
0780
1CE0
7038
0000
0000
ENDCHAR
STARTCHAR U+F1FB
ENCODING 61947
SWIDTH 960 0
DWIDTH 16 0
BBX 16 16 0 -2
BITMAP
0000
0000
0000
0000
0000
0000
0000
0000
0000
0FC0
0000
7FF8
0CC0
7878
0000
0000
ENDCHAR
STARTCHAR U+F1FC
ENCODING 61948
SWIDTH 960 0
DWIDTH 16 0
BBX 16 16 0 -2
BITMAP
0000
0000
0000
0000
0000
0000
0000
0000
0000
7FF0
0018
7FF8
0018
0018
0000
0000
ENDCHAR
STARTCHAR U+F1FD
ENCODING 61949
SWIDTH 960 0
DWIDTH 16 0
BBX 16 16 0 -2
BITMAP
0000
0000
0000
0000
0000
0000
0000
0000
0000
7FF8
6000
7FF0
6000
3FF8
0000
0000
ENDCHAR
STARTCHAR U+F1FE
ENCODING 61950
SWIDTH 960 0
DWIDTH 16 0
BBX 16 16 0 -2
BITMAP
0000
0000
0000
0000
0000
0000
0000
0000
0000
7FF8
1860
1860
1860
7FF8
0000
0000
ENDCHAR
STARTCHAR U+F1FF
ENCODING 61951
SWIDTH 960 0
DWIDTH 16 0
BBX 16 16 0 -2
BITMAP
0000
0000
0000
0000
0000
0000
0000
0000
0000
0FC0
0000
7FF8
3030
1FE0
0000
0000
ENDCHAR
ENDFONT
